<svg width="626" height="720" viewBox="0 0 626 720" fill="none" xmlns="http://www.w3.org/2000/svg">
<path opacity="0.5" d="M439.468 444.931C437.468 444.931 437.268 441.931 439.368 441.731C452.568 440.631 478.268 441.831 481.768 429.031C471.268 426.331 469.968 418.83 474.368 415.63C478.668 412.43 485.568 417.631 485.368 426.531C485.368 426.631 488.168 426.831 489.468 426.931C503.368 427.331 511.368 418.23 511.568 411.63C511.768 404.73 490.568 383.431 489.668 364.031C449.968 372.831 408.868 340.731 417.168 296.831C403.468 293.531 393.068 279.23 396.468 262.63C382.968 260.53 376.268 250.831 377.668 240.731C377.968 238.631 381.168 239.03 380.868 241.13C379.668 249.63 385.368 257.731 397.368 259.531C398.768 255.431 401.368 252.431 405.368 252.531C411.768 252.731 412.668 263.831 399.768 263.031C396.468 278.131 406.268 290.931 417.968 293.831C423.268 276.531 443.968 289.231 429.668 295.731C426.968 296.931 423.568 297.731 420.368 297.431C412.568 339.831 452.268 369.73 489.768 360.83C492.268 329.53 522.268 354.83 492.868 363.33C493.268 382.33 515.068 403.131 514.768 411.931C514.468 421.731 502.768 432.431 484.968 429.931C481.868 443.131 461.768 444.031 446.868 444.831C437.668 444.931 440.268 444.931 439.468 444.931ZM477.168 417.831C474.468 417.831 473.068 423.331 482.068 425.831C481.968 420.731 478.968 417.831 477.168 417.831ZM499.068 348.531C495.368 348.531 493.468 355.93 492.968 359.63C505.568 355.63 503.068 348.531 499.068 348.531ZM421.068 294.031C425.468 294.231 431.268 291.631 431.368 289.931C431.268 288.431 423.968 285.031 421.068 294.031ZM400.568 259.63C403.368 259.73 406.468 259.63 406.468 256.83C406.568 254.93 402.768 254.23 400.568 259.63Z" fill="white"/>
<path d="M405.467 307.831C397.167 301.231 405.367 277.431 421.267 282.831C415.667 284.631 411.767 286.831 408.767 292.131C406.467 296.331 404.467 303.231 405.467 307.831Z" fill="white"/>
<path d="M364.168 306.731C357.068 299.631 367.168 278.031 381.768 284.831C376.268 286.031 372.368 287.531 368.968 292.331C366.168 295.931 363.668 302.231 364.168 306.731Z" fill="white"/>
<path d="M332.568 423.531C328.668 424.231 321.368 420.331 318.368 412.331C315.868 405.431 318.368 398.431 323.868 395.131C321.568 400.631 320.668 404.931 322.768 410.731C324.368 415.231 328.368 421.231 332.568 423.531Z" fill="white"/>
<path d="M450.967 398.531C441.267 398.631 433.567 377.131 447.767 371.831C444.867 376.331 443.267 380.131 444.267 385.631C444.967 389.931 447.567 395.931 450.967 398.531Z" fill="white"/>
<path d="M427.768 413.631C423.368 413.631 416.168 407.931 414.568 398.731C413.168 390.731 417.268 383.631 423.868 381.231C420.368 386.731 418.468 391.231 419.568 397.931C420.468 403.131 423.668 410.431 427.768 413.631Z" fill="white"/>
<path d="M353.168 410.031C349.268 409.331 343.868 402.931 344.068 394.431C344.268 387.031 349.168 381.531 355.368 380.431C351.268 384.731 348.768 388.431 348.668 394.531C348.468 399.331 350.068 406.431 353.168 410.031Z" fill="white"/>
<path d="M339.868 372.131C329.368 371.531 322.268 347.331 338.468 342.531C334.968 347.231 332.968 351.231 333.568 357.331C333.968 362.131 336.368 368.931 339.868 372.131Z" fill="white"/>
<path d="M392.068 522.131C388.368 522.631 381.568 518.831 379.068 511.331C376.768 504.631 379.368 498.231 384.668 495.431C382.368 500.431 381.368 504.431 383.268 510.031C384.568 514.231 388.168 519.931 392.068 522.131Z" fill="white"/>
<path d="M425.568 486.431C421.868 486.931 415.068 483.131 412.568 475.631C410.268 468.931 412.868 462.531 418.168 459.731C415.868 464.731 414.868 468.731 416.768 474.331C418.068 478.431 421.768 484.131 425.568 486.431Z" fill="white"/>
<path d="M438.068 446.231C428.368 449.231 414.268 430.331 426.668 420.931C425.168 426.231 424.768 430.331 427.468 435.531C429.468 439.431 433.968 444.531 438.068 446.231Z" fill="white"/>
<path d="M453.768 365.031C443.468 366.731 431.668 345.531 445.668 337.631C443.368 342.831 442.468 347.031 444.468 352.631C445.868 356.931 449.768 362.731 453.768 365.031Z" fill="white"/>
<path d="M454.268 332.931C442.268 331.731 435.068 303.631 454.068 298.831C449.768 304.131 447.268 308.631 447.668 315.631C447.968 321.131 450.368 329.131 454.268 332.931Z" fill="white"/>
<path d="M397.268 455.031C392.968 455.031 385.768 449.431 384.068 440.331C382.568 432.231 386.668 425.231 393.168 422.831C389.668 428.231 387.868 432.631 389.068 439.431C389.968 444.831 393.268 451.831 397.268 455.031Z" fill="white"/>
<path d="M412.268 370.631C408.268 370.631 401.768 365.531 400.368 357.131C399.068 349.831 402.868 343.531 408.868 341.231C405.668 346.231 403.968 350.331 404.968 356.331C405.668 361.031 408.568 367.631 412.268 370.631Z" fill="white"/>
<path d="M421.968 338.131C412.468 337.131 407.368 315.431 421.768 311.731C418.468 315.831 416.568 319.331 416.868 324.731C417.068 329.031 418.968 335.131 421.968 338.131Z" fill="white"/>
<path d="M366.767 364.031C363.567 361.731 361.367 353.631 365.267 346.031C368.567 339.431 375.367 336.531 381.567 338.331C376.067 340.431 372.167 342.731 369.467 348.131C367.267 352.431 365.567 359.431 366.767 364.031Z" fill="white"/>
<path d="M374.968 326.531C372.168 323.431 371.568 314.731 376.968 307.731C381.668 301.631 389.268 299.931 395.268 303.031C389.168 304.031 384.768 305.631 380.768 310.731C377.668 314.631 374.568 321.531 374.968 326.531Z" fill="white"/>
<g opacity="0.3">
<path d="M399.068 296.131C399.468 306.231 409.868 321.731 426.968 321.031C439.268 320.531 445.968 310.831 445.568 301.531C444.468 273.431 397.968 268.631 399.068 296.131Z" fill="white"/>
<path d="M425.068 322.531C409.568 322.031 398.068 308.031 397.568 296.131C396.368 266.431 445.968 271.431 447.168 301.431C447.568 312.531 439.268 323.031 425.068 322.531ZM419.168 279.431C388.768 278.531 399.168 320.631 426.868 319.531C452.268 318.431 449.168 280.331 419.168 279.431Z" fill="white"/>
<path d="M357.368 296.731C354.568 319.731 398.768 332.631 399.668 303.031C400.468 276.031 360.268 272.631 357.368 296.731Z" fill="white"/>
<path d="M355.668 296.531C358.868 270.031 402.268 274.231 401.368 303.131C400.368 335.131 352.568 322.031 355.668 296.531ZM378.268 282.431C358.668 281.831 354.668 299.731 363.468 309.931C372.668 320.631 397.268 324.331 397.968 303.031C398.168 293.131 391.568 282.831 378.268 282.431Z" fill="white"/>
<path d="M319.868 424.931C331.968 437.431 351.168 430.431 354.268 417.831C357.968 403.131 346.768 394.631 331.868 390.931C312.268 386.031 305.368 409.831 319.868 424.931Z" fill="white"/>
<path d="M334.468 433.131C318.968 432.631 307.568 415.631 311.168 401.331C316.168 381.331 341.668 389.231 351.068 399.231C364.168 412.931 352.068 433.631 334.468 433.131ZM327.267 391.731C313.067 391.331 308.268 410.631 320.968 423.831C332.568 435.831 350.067 428.431 352.767 417.431C357.067 399.831 336.567 392.031 327.267 391.731Z" fill="white"/>
<path d="M374.268 507.331C375.768 540.031 424.168 529.331 421.368 502.731C418.068 473.031 372.868 476.031 374.268 507.331Z" fill="white"/>
<path d="M372.568 507.431C371.068 474.131 419.568 470.631 422.968 502.631C426.068 531.431 374.168 542.331 372.568 507.431ZM375.868 507.231C376.768 527.431 397.468 530.231 410.768 520.931C428.468 508.531 418.168 482.131 396.268 483.831C386.068 484.631 375.268 492.231 375.868 507.231Z" fill="white"/>
<path d="M440.968 413.231C429.168 407.931 415.268 418.631 414.968 431.031C414.668 442.231 425.068 452.231 436.968 452.631C457.368 453.231 462.968 423.131 440.968 413.231Z" fill="white"/>
<path d="M436.968 454.331C423.968 453.931 412.868 443.031 413.268 430.931C413.568 419.731 423.968 409.831 435.068 410.131C445.868 410.431 457.268 421.931 456.968 434.631C456.568 444.631 449.068 454.631 436.968 454.331ZM416.668 431.031C416.368 441.231 425.868 450.531 437.068 450.831C455.168 451.431 460.968 424.031 440.268 414.731C429.568 409.931 416.968 419.931 416.668 431.031Z" fill="white"/>
<path d="M461.568 364.531C449.468 359.131 435.268 370.031 434.868 382.731C434.468 394.231 445.268 404.531 457.468 404.931C478.368 405.531 484.168 374.631 461.568 364.531Z" fill="white"/>
<path d="M457.368 406.631C444.068 406.231 432.668 395.031 433.068 382.631C433.468 371.131 444.068 360.931 455.468 361.331C466.568 361.631 478.268 373.531 477.868 386.431C477.568 396.631 469.868 407.031 457.368 406.631ZM436.568 382.731C436.268 393.231 446.068 402.731 457.468 403.131C476.068 403.731 481.968 375.631 460.768 366.131C449.868 361.131 436.968 371.431 436.568 382.731Z" fill="white"/>
<path d="M437.168 376.131C393.368 368.531 396.668 418.731 432.368 419.831C446.268 420.231 453.768 407.831 454.068 398.531C454.368 388.531 447.868 377.931 437.168 376.131Z" fill="white"/>
<path d="M432.368 421.531C397.168 420.431 390.768 372.531 430.468 373.731C466.668 374.831 460.968 422.431 432.368 421.531ZM432.468 418.131C444.968 418.531 453.268 406.831 452.368 396.431C451.668 388.431 446.568 379.531 436.868 377.831C395.068 370.531 399.468 417.131 432.468 418.131Z" fill="white"/>
<path d="M335.968 393.031C335.068 424.031 381.568 432.031 382.568 399.331C383.768 358.231 336.568 371.231 335.968 393.031Z" fill="white"/>
<path d="M361.368 422.031C345.668 421.531 333.668 408.731 334.168 392.931C334.468 381.831 347.568 371.931 358.468 370.731C391.068 367.231 394.368 423.031 361.368 422.031ZM337.768 393.031C336.868 421.831 379.868 429.331 380.768 399.231C381.968 360.831 338.368 373.331 337.768 393.031Z" fill="white"/>
<path d="M322.968 355.531C311.768 352.431 300.368 363.731 300.068 373.231C299.268 400.731 342.368 401.531 343.068 378.031C343.568 362.631 331.168 352.431 322.968 355.531Z" fill="white"/>
<path d="M321.468 396.431C303.668 395.931 298.368 380.531 298.568 373.231C298.868 362.431 311.168 351.031 322.968 353.931C344.068 347.031 359.368 397.531 321.468 396.431ZM301.668 373.231C301.468 379.531 306.068 392.731 321.568 393.231C354.868 394.231 340.268 350.531 323.068 357.031C311.868 354.031 301.868 365.331 301.668 373.231Z" fill="white"/>
<path d="M323.468 355.831C322.668 382.131 365.768 394.631 366.868 358.431C367.568 334.831 324.468 322.531 323.468 355.831Z" fill="white"/>
<path d="M321.868 355.731C322.968 320.431 369.168 332.831 368.368 358.431C367.268 396.131 321.068 384.431 321.868 355.731ZM324.968 355.831C324.268 380.231 364.268 392.231 365.268 358.331C365.968 336.731 325.968 324.731 324.968 355.831Z" fill="white"/>
<path d="M415.368 332.731C404.968 331.131 395.267 344.531 394.967 354.431C394.067 385.131 442.368 388.431 443.168 360.431C443.668 345.831 429.568 334.831 415.368 332.731Z" fill="white"/>
<path d="M393.268 354.431C393.568 343.731 403.368 330.531 413.868 330.831C427.668 331.231 445.568 343.831 445.068 360.531C444.068 390.831 392.168 387.631 393.268 354.431ZM413.768 334.331C405.568 334.031 397.068 345.631 396.868 354.531C396.568 363.931 403.268 377.331 419.168 377.831C454.668 378.831 444.068 335.331 413.768 334.331Z" fill="white"/>
<path d="M452.968 330.031C427.668 331.331 426.768 369.831 458.068 370.731C489.068 371.731 476.968 328.831 452.968 330.031Z" fill="white"/>
<path d="M458.068 372.331C424.768 371.331 425.668 329.931 452.868 328.531C478.868 327.231 491.368 373.331 458.068 372.331ZM455.568 331.531C443.568 331.131 436.068 339.531 435.768 348.931C435.068 371.831 474.468 377.531 475.168 355.131C475.468 345.131 466.068 331.931 455.568 331.531Z" fill="white"/>
<path d="M437.868 315.931C437.368 331.231 446.968 337.631 462.768 338.131C474.868 338.531 481.068 333.031 481.368 321.131C482.168 293.031 438.968 279.831 437.868 315.931Z" fill="white"/>
<path d="M462.668 339.631C444.668 339.031 435.868 331.031 436.268 315.831C437.468 277.631 483.768 291.131 482.868 321.131C482.468 333.831 475.668 340.031 462.668 339.631ZM439.368 315.931C438.968 329.331 446.568 336.031 462.768 336.531C474.068 336.831 479.468 331.931 479.768 321.031C480.568 295.031 440.368 282.031 439.368 315.931Z" fill="white"/>
<path d="M314.368 301.331C311.368 325.831 358.368 339.531 359.268 308.031C360.168 279.231 317.468 275.631 314.368 301.331Z" fill="white"/>
<path d="M312.468 301.131C315.868 272.931 362.068 277.331 361.068 308.131C360.068 342.131 309.168 328.231 312.468 301.131ZM336.568 286.131C315.668 285.531 311.468 304.431 320.768 315.331C330.568 326.731 356.768 330.631 357.368 307.931C357.768 297.431 350.668 286.531 336.568 286.131Z" fill="white"/>
<path d="M318.768 316.931C305.368 315.231 295.668 327.931 295.368 336.531C295.168 343.731 301.068 357.731 317.168 358.231C325.768 358.531 338.968 354.331 339.368 340.731C339.768 326.231 331.768 318.631 318.768 316.931Z" fill="white"/>
<path d="M317.068 360.031C298.868 359.431 293.268 343.631 293.468 336.531C293.768 327.631 303.168 314.531 316.768 315.031C348.568 315.931 350.368 361.131 317.068 360.031ZM316.668 318.631C304.868 318.231 297.268 330.131 297.068 336.631C296.868 343.331 302.568 356.031 317.168 356.431C324.068 356.631 337.068 353.631 337.468 340.731C337.568 338.231 337.268 335.331 336.568 332.231C334.868 323.831 324.868 318.831 316.668 318.631Z" fill="white"/>
<path d="M383.468 483.931C375.168 503.531 357.868 506.131 347.068 491.831C331.268 470.931 360.368 443.231 379.068 468.031C382.868 472.931 385.668 478.831 383.468 483.931Z" fill="white"/>
<path d="M362.568 502.231C344.568 501.631 331.968 474.731 350.168 461.031C368.768 447.031 389.768 472.331 384.668 484.431C380.668 494.231 372.868 502.531 362.568 502.231ZM362.668 459.631C349.068 459.231 337.368 476.531 348.268 491.031C358.368 504.431 374.368 502.131 382.268 483.431C385.368 476.131 374.868 460.031 362.668 459.631Z" fill="white"/>
<path d="M413.068 486.831C432.368 500.431 442.868 484.731 443.768 476.131C444.768 466.531 438.567 448.431 420.267 450.631C410.067 451.831 400.668 457.531 400.368 468.331C400.068 478.831 407.368 482.831 413.068 486.831Z" fill="white"/>
<path d="M426.668 493.631C420.268 493.431 415.368 490.231 410.568 486.931C405.168 483.231 398.568 478.631 398.868 468.231C399.268 455.931 410.068 450.231 420.168 449.031C438.068 446.831 446.668 463.831 445.368 476.231C444.468 484.531 437.268 494.031 426.668 493.631ZM413.968 485.531C420.968 490.431 427.468 491.831 432.768 489.431C449.868 481.731 442.868 449.431 420.568 452.131C411.768 453.231 402.368 458.031 402.068 468.331C401.668 477.431 407.268 480.831 413.968 485.531Z" fill="white"/>
<path d="M389.467 459.431C359.867 466.031 370.168 501.131 394.368 501.931C405.168 502.231 414.967 493.731 415.267 483.431C415.667 469.931 404.767 456.031 389.467 459.431Z" fill="white"/>
<path d="M394.368 503.431C368.468 502.631 357.768 464.931 389.168 457.931C405.268 454.331 417.268 468.931 416.768 483.431C416.468 494.631 406.168 503.831 394.368 503.431ZM394.668 460.431C386.068 460.131 373.268 466.331 372.868 478.231C372.468 489.631 382.568 500.031 394.368 500.331C404.368 500.631 413.368 492.731 413.668 483.331C414.068 472.631 406.468 460.831 394.668 460.431Z" fill="white"/>
<path d="M339.968 441.731C339.468 457.731 350.568 463.631 366.468 464.131C396.368 465.031 394.868 438.631 388.768 427.031C376.268 403.331 340.668 417.531 339.968 441.731Z" fill="white"/>
<path d="M366.468 465.731C347.268 465.131 337.867 457.031 338.267 441.631C339.067 415.331 376.967 401.231 390.267 426.231C396.567 438.231 398.568 466.731 366.468 465.731ZM341.568 441.731C341.168 455.131 349.268 461.831 366.468 462.431C394.968 463.331 392.767 438.231 387.267 427.831C375.467 405.431 342.268 419.531 341.568 441.731Z" fill="white"/>
<path d="M438.468 308.931C423.968 299.231 406.768 310.231 406.368 323.131C405.868 338.231 418.668 344.231 433.968 344.731C454.068 345.331 455.768 320.631 438.468 308.931Z" fill="white"/>
<path d="M412.168 415.131C369.368 406.231 368.868 459.831 403.968 460.931C429.668 461.631 428.468 418.531 412.168 415.131Z" fill="white"/>
<path d="M403.868 462.631C369.368 461.531 366.268 411.431 404.868 412.531C415.868 412.831 423.868 416.531 425.268 431.731C427.268 453.131 416.568 463.031 403.868 462.631ZM404.768 415.931C370.768 414.931 373.868 458.231 403.968 459.131C418.168 459.531 423.168 446.331 421.868 432.031C420.668 419.331 414.868 416.231 404.768 415.931Z" fill="white"/>
<path d="M433.868 346.331C404.668 345.431 399.068 324.831 409.468 311.831C424.068 293.531 452.468 309.031 451.868 330.331C451.568 340.131 444.268 346.631 433.868 346.331ZM426.968 306.731C405.068 306.031 395.368 342.031 433.968 343.231C458.168 343.931 450.368 307.531 426.968 306.731Z" fill="white"/>
<path d="M393.968 373.831C379.968 372.531 368.868 382.231 368.468 395.331C367.568 424.631 416.768 430.631 417.668 400.431C418.068 388.631 409.068 375.231 393.968 373.831Z" fill="white"/>
<path d="M395.368 421.931C357.668 420.731 358.568 371.231 392.368 372.231C406.268 372.631 417.368 382.931 419.068 397.531C420.468 409.231 411.468 422.431 395.368 421.931ZM392.268 375.331C362.668 374.431 361.768 417.831 395.468 418.831C409.568 419.231 417.268 407.631 416.068 397.931C414.468 384.931 404.668 375.631 392.268 375.331Z" fill="white"/>
<path d="M378.668 334.831C368.668 333.031 359.968 342.031 359.668 351.731C359.368 361.831 368.668 378.031 385.668 378.531C397.968 378.931 405.368 369.731 405.668 360.431C405.968 349.031 395.368 335.431 386.168 335.131C383.668 335.031 381.068 335.331 378.668 334.831Z" fill="white"/>
<path d="M385.668 380.031C368.068 379.531 357.768 363.131 358.168 351.631C358.468 341.431 367.068 332.731 376.568 333.031C379.568 333.131 378.368 333.631 383.668 333.531C397.568 333.331 407.568 349.031 407.268 360.431C406.868 370.231 399.268 380.531 385.668 380.031ZM376.468 336.131C367.768 335.831 361.468 344.131 361.268 351.731C360.968 361.731 370.368 376.431 385.768 376.931C397.368 377.331 403.868 368.631 404.168 360.331C404.468 349.931 394.568 336.831 386.168 336.631C375.068 336.331 378.568 336.231 376.468 336.131Z" fill="white"/>
<path d="M365.568 321.031C365.268 330.431 375.168 341.531 386.868 341.931C398.568 342.331 419.068 331.231 411.668 312.831C401.668 287.731 366.368 292.931 365.568 321.031Z" fill="white"/>
<path d="M386.767 343.731C373.667 343.331 363.468 330.931 363.768 321.031C364.168 307.531 372.368 297.431 384.568 295.231C401.468 292.231 415.368 306.731 414.968 321.831C414.568 334.131 399.167 344.131 386.767 343.731ZM389.568 298.431C378.368 298.131 367.768 306.331 367.268 321.131C366.968 329.431 375.968 339.831 386.868 340.231C397.368 340.531 411.168 331.631 411.468 321.831C411.768 310.731 402.868 298.831 389.568 298.431Z" fill="white"/>
<path d="M333.968 314.731C328.068 323.431 333.068 340.431 353.568 341.131C365.568 341.531 373.668 336.831 374.068 322.731C374.668 303.431 349.468 291.831 333.968 314.731Z" fill="white"/>
<path d="M353.468 342.931C332.168 342.231 325.468 324.131 332.468 313.831C348.968 289.331 376.468 301.731 375.768 322.931C375.368 336.631 367.868 343.331 353.468 342.931ZM354.068 303.831C344.568 303.531 328.368 316.231 335.168 329.531C336.968 333.031 341.768 339.031 353.668 339.331C366.068 339.731 371.968 334.431 372.368 322.731C372.668 310.731 363.368 304.131 354.068 303.831Z" fill="white"/>
</g>
<path d="M340.468 334.331C331.668 327.231 340.368 301.431 357.768 307.331C351.668 309.331 347.468 311.531 344.168 317.331C341.568 321.831 339.368 329.331 340.468 334.331Z" fill="white"/>
<path d="M302.667 347.131C294.667 339.131 306.067 314.431 322.767 322.131C316.467 323.431 312.067 325.231 308.167 330.631C305.167 334.831 302.167 342.031 302.667 347.131Z" fill="white"/>
<path d="M320.568 309.63C318.368 306.33 319.268 297.93 325.668 292.13C331.168 287.13 338.667 286.831 343.767 290.731C337.767 290.731 333.367 291.43 328.767 295.63C325.067 298.83 320.968 304.83 320.568 309.63Z" fill="white"/>
<path d="M314.767 389.431C310.867 388.731 305.468 382.331 305.668 373.831C305.868 366.431 310.767 360.931 316.967 359.831C312.867 364.131 310.367 367.831 310.267 373.931C310.167 378.731 311.667 385.831 314.767 389.431Z" fill="white"/>
<path d="M358.068 457.531C347.168 457.631 338.168 433.231 354.468 427.031C351.168 432.231 349.368 436.431 350.468 442.731C351.268 447.631 354.168 454.531 358.068 457.531Z" fill="white"/>
<path d="M358.467 494.631C348.267 494.631 340.367 472.431 354.967 467.031C351.967 471.731 350.367 475.531 351.467 481.231C352.167 485.631 354.967 491.831 358.467 494.631Z" fill="white"/>
<path d="M389.468 495.531C379.368 497.031 368.368 476.231 381.968 468.731C379.668 473.731 378.668 477.731 380.568 483.331C381.968 487.531 385.568 493.231 389.468 495.531Z" fill="white"/>
<path d="M384.867 412.531C374.367 412.631 365.667 389.031 381.367 383.131C378.167 388.131 376.467 392.231 377.467 398.231C378.267 403.031 381.167 409.631 384.867 412.531Z" fill="white"/>
<path d="M483.668 200.83C486.768 204.93 480.368 215.03 477.668 222.23L477.568 222.33C489.068 220.83 498.868 209.03 499.368 211.83C500.468 218.33 496.668 220.83 498.268 221.33C501.168 222.23 513.368 225.33 513.568 225.53C514.368 226.33 512.068 229.63 512.668 231.03C513.368 232.93 514.568 234.53 516.068 236.03C525.268 245.23 528.868 242.33 523.368 246.43C518.068 250.43 473.768 248.93 511.968 257.93C512.368 258.03 512.568 258.63 512.168 258.93C509.768 260.83 504.068 266.43 512.968 268.33C517.068 269.23 514.468 276.73 517.668 282.13C518.868 284.13 506.068 285.73 500.068 288.93C495.468 291.33 493.768 287.33 490.668 288.33C484.668 290.33 489.968 294.83 487.868 294.63C480.168 293.93 480.068 290.23 471.368 281.43C465.268 275.43 467.768 285.83 478.068 297.33C478.468 297.83 478.068 298.23 478.168 298.23C478.068 298.23 472.368 296.53 471.068 297.53C465.568 301.83 469.168 316.63 463.968 316.63C456.268 316.63 454.968 302.63 452.368 302.63C451.268 302.63 449.868 305.43 449.468 307.93C449.268 308.83 447.868 307.73 446.868 306.83C439.468 299.43 448.668 285.13 445.168 281.73C444.668 281.23 444.368 281.53 443.868 282.03C442.268 283.63 443.468 289.93 440.068 289.93C438.368 289.93 438.868 286.33 437.868 286.33C435.568 286.33 435.768 288.43 429.768 294.53C427.268 297.03 429.168 281.23 427.468 281.23C426.668 281.23 425.568 284.23 425.268 284.63C424.968 284.93 423.768 284.13 423.468 283.73C419.668 279.93 425.868 269.63 424.068 269.63C401.768 269.63 432.068 258.73 413.968 257.23C410.468 256.93 426.368 248.83 421.168 243.63C418.668 241.13 414.868 240.13 412.568 237.93C411.068 236.43 423.668 226.03 443.268 245.93C444.568 247.23 445.068 245.93 450.668 246.53C412.568 215.13 395.268 221.43 389.268 218.13C390.868 214.63 392.668 210.53 394.668 207.33C394.968 217.63 417.768 215.83 450.268 242.53C449.868 240.03 451.268 237.23 449.368 235.33C446.568 232.53 439.368 233.63 434.868 229.13C434.068 228.33 432.768 228.13 433.768 227.13C435.068 225.83 436.868 226.73 437.068 226.53C437.168 226.43 434.268 215.33 438.568 210.73C438.868 210.43 439.368 210.53 439.468 210.93C440.468 213.43 443.268 214.83 444.168 215.73C444.568 216.13 444.868 216.23 445.268 215.93C447.568 213.63 452.668 205.63 454.968 205.63C457.268 205.63 454.768 213.23 459.068 213.23C467.368 212.73 482.968 199.83 483.668 200.83ZM481.368 198.63C471.668 205.73 462.068 210.03 458.768 210.13C458.568 209.63 458.468 208.53 458.468 207.83C457.868 201.63 454.568 202.43 454.668 202.43C450.968 202.43 446.768 209.13 444.368 212.13C443.368 211.43 442.168 210.53 441.668 209.43C439.468 204.03 431.468 208.43 433.768 223.53C432.868 223.83 432.168 224.33 431.768 224.73C429.268 227.23 435.668 226.43 407.768 214.43C399.268 210.73 397.268 209.63 397.168 206.83C397.068 204.23 393.768 203.33 392.368 205.53C390.268 208.83 388.368 213.03 386.768 216.63C383.468 223.83 400.868 217.83 424.168 231.03C418.368 230.13 413.268 231.93 410.468 234.73C406.068 239.13 416.768 242.53 419.268 245.03C420.868 246.63 413.868 252.43 412.068 253.73C409.768 255.53 410.868 259.13 413.768 259.43C415.068 259.53 416.268 259.73 417.068 260.03C416.668 260.53 416.168 261.23 415.768 261.73C410.368 268.13 413.368 271.73 421.268 271.93C420.068 275.83 418.168 281.73 421.668 285.23C422.068 285.63 423.468 286.93 425.068 286.93C425.868 286.93 425.768 286.63 425.768 287.43C425.768 293.03 425.868 297.03 429.368 297.03C429.968 297.03 430.868 296.83 431.668 296.03C437.668 290.03 436.468 289.53 437.068 290.53C438.068 292.23 440.168 292.73 442.068 291.83C438.668 309.53 451.068 314.13 452.068 308.13C452.368 306.43 452.368 306.83 452.568 307.33C454.668 312.93 458.068 319.03 464.068 319.03C472.668 319.03 468.968 299.63 472.568 299.63C474.468 299.63 477.368 300.63 478.268 300.63C480.768 300.63 481.868 297.33 480.168 295.43C478.368 293.43 476.868 291.63 475.668 289.93C479.368 294.03 482.068 297.23 488.068 297.23C490.468 297.23 491.968 294.73 490.868 292.53C490.268 291.33 490.168 291.23 491.668 290.73C492.668 290.43 493.968 292.23 497.268 292.23C501.568 292.23 499.668 290.83 509.368 288.43C525.868 284.33 519.268 282.73 518.468 274.13C517.468 263.03 512.568 267.13 510.968 264.63C510.868 262.43 515.868 261.23 515.168 257.73C514.468 254.73 512.068 255.63 502.968 252.73C511.168 251.43 521.868 251.03 525.168 248.53C533.768 242.03 525.768 241.73 518.168 234.13C514.768 230.73 515.568 229.83 515.868 228.93C518.268 222.13 513.568 222.63 506.268 220.73C497.668 218.43 503.768 220.93 502.168 211.43C501.768 209.13 499.168 208.03 497.268 209.33C492.368 212.53 487.668 216.43 482.468 218.43C485.168 212.63 489.668 204.13 486.068 199.33C484.768 197.93 482.868 197.63 481.368 198.63ZM447.368 236.83C447.168 236.73 446.968 236.53 446.868 236.43C446.968 236.53 447.168 236.73 447.368 236.83Z" fill="white"/>
<g opacity="0.5">
<path d="M453.667 247.63C452.367 244.73 458.067 249.93 459.267 250.83C483.667 269.73 512.767 281.63 512.667 281.73C508.667 283.33 456.467 254.03 453.667 247.63Z" fill="white"/>
<path d="M456.367 246.83C450.867 247.73 450.267 244.73 479.467 241.53C501.267 239.13 519.767 241.43 517.367 242.33C515.567 243.03 503.567 238.03 460.267 245.93C459.067 246.23 457.667 246.63 456.367 246.83Z" fill="white"/>
<path d="M475.467 261.53C476.467 260.93 485.567 260.63 487.167 260.53C507.667 259.13 505.667 260.83 504.267 260.83C491.067 260.73 469.667 264.83 475.467 261.53Z" fill="white"/>
<path d="M475.967 262.73C477.367 263.73 476.367 278.23 483.367 288.83C483.567 289.13 483.367 289.43 483.167 289.43C479.867 289.53 471.967 260.03 475.967 262.73Z" fill="white"/>
<path d="M454.067 259.53C454.367 259.13 455.167 258.13 455.567 259.03C456.067 260.03 455.267 260.93 454.967 261.73C448.467 278.13 451.467 288.03 449.967 286.93C448.967 286.33 449.667 266.53 454.067 259.53Z" fill="white"/>
<path d="M453.167 246.23C452.867 244.33 476.067 207.83 476.067 211.43C476.067 212.23 472.767 214.83 465.167 228.03C457.667 241.13 453.567 248.73 453.167 246.23Z" fill="white"/>
<path d="M459.567 236.63C458.067 236.43 452.067 219.43 453.267 215.33C453.367 215.13 453.867 214.73 453.967 215.63C454.067 225.83 462.767 237.03 459.567 236.63Z" fill="white"/>
<path d="M447.167 253.33C449.267 253.33 448.667 254.83 447.267 255.03C432.467 257.63 422.467 265.63 422.067 265.83C421.467 266.13 420.667 265.63 423.667 263.63C429.367 259.73 441.467 253.33 447.167 253.33Z" fill="white"/>
<path d="M460.667 235.53C478.767 233.23 489.167 228.13 490.567 227.73C490.867 227.63 494.767 227.73 476.367 233.73C457.267 240.03 457.567 235.93 460.667 235.53Z" fill="white"/>
<path d="M453.967 246.93C453.867 248.33 452.467 249.43 451.467 250.63C437.467 268.23 432.667 285.13 432.267 286.13C431.067 288.73 431.167 283.13 439.667 266.13C443.767 257.73 454.267 242.83 453.967 246.93Z" fill="white"/>
<path d="M454.067 247.13C455.567 249.43 457.467 280.93 463.367 311.23C463.567 312.13 463.167 313.93 462.067 308.63C460.767 303.13 450.367 241.63 454.067 247.13Z" fill="white"/>
<path d="M451.867 245.33C452.267 244.73 454.467 243.93 455.167 244.73C455.467 245.03 455.567 245.53 455.767 245.83C456.667 247.13 457.467 247.23 455.167 249.43C453.667 250.93 449.967 248.23 451.867 245.33Z" fill="white"/>
</g>
<path d="M331.167 255.831C273.067 255.831 275.867 172.331 332.867 173.431C360.767 173.931 364.267 199.331 373.767 195.731C375.067 195.231 376.367 196.531 375.867 197.731C368.067 218.631 372.267 226.031 368.467 225.831C364.167 225.631 371.467 214.731 355.667 200.031C316.867 164.031 295.667 230.231 335.667 231.431C348.267 231.931 347.167 220.831 339.967 209.231C339.367 208.231 339.967 206.931 341.167 206.831C364.267 205.031 369.767 255.831 331.167 255.831ZM331.867 176.531C280.667 176.531 277.567 251.531 330.467 252.631C363.667 253.431 360.867 213.031 344.267 210.131C363.967 245.431 310.067 239.931 310.967 211.131C311.367 198.431 320.067 186.131 333.067 186.331C346.567 186.731 363.067 198.231 368.367 213.031C370.267 202.631 372.267 199.231 371.867 199.231C360.867 199.231 358.067 176.531 331.867 176.531Z" fill="white"/>
<path d="M398.268 297.63C395.968 297.63 363.768 271.231 366.968 224.131C368.568 199.931 379.068 178.031 394.768 161.931C403.268 153.131 416.068 177.431 431.868 174.631C433.668 174.331 434.468 176.931 432.768 177.631C383.468 199.731 369.768 256.63 399.468 295.13C400.368 296.03 399.668 297.63 398.268 297.63ZM399.168 163.231C395.668 163.231 372.468 188.93 370.168 224.33C368.768 246.23 375.168 268.231 389.468 285.031C369.568 246.631 384.668 199.531 425.568 177.531C414.068 175.331 404.468 163.231 399.168 163.231Z" fill="white"/>
<path opacity="0.5" d="M320.468 494.43C305.068 467.33 321.168 448.23 332.868 434.23C344.868 419.93 351.567 414.43 326.767 383.23C317.167 371.23 308.268 360.13 310.368 345.63C293.768 341.23 274.768 324.33 275.468 302.03C276.468 269.43 315.867 240.83 338.767 249.23C340.867 242.43 347.668 236.13 355.768 236.33C358.368 236.43 360.868 237.03 363.368 237.63C368.468 238.83 370.668 238.43 370.468 240.53C370.068 244.13 362.268 239.83 355.668 239.63C349.068 239.43 343.268 245.03 341.668 250.63C347.968 253.93 352.968 261.33 347.868 264.03C342.368 267.03 337.468 258.63 338.068 252.43C334.668 251.03 330.268 250.33 325.068 251.03C315.868 252.33 279.568 268.93 278.568 302.13C277.968 322.63 295.768 338.43 310.868 342.43C315.468 326.93 339.667 341.23 323.267 345.53C320.067 346.33 316.567 346.73 313.267 346.23C311.567 359.53 319.768 369.53 329.068 381.13C354.868 413.53 348.068 420.83 335.068 436.13C323.268 450.13 308.668 467.43 322.968 492.63C324.268 494.63 321.468 496.23 320.468 494.43ZM314.168 343.23C319.068 343.93 325.167 342.33 325.767 341.23C325.767 339.73 322.567 338.93 320.267 338.83C318.467 338.73 315.568 338.63 314.168 343.23ZM341.368 254.13C341.568 257.13 343.968 262.63 346.468 261.33C347.568 260.63 345.968 256.93 341.368 254.13Z" fill="white"/>
</svg>
