<svg width="374" height="126" viewBox="0 0 374 126" fill="none" xmlns="http://www.w3.org/2000/svg">
<g opacity="0.5">
<path d="M73.8482 82.6922C74.9042 83.4602 75.4322 84.0842 75.4322 84.5642C75.4322 85.0442 74.7122 85.3802 73.2722 85.5722C70.9682 84.9962 68.3282 84.8522 65.3522 85.1402C61.8002 85.3322 57.8642 85.7642 53.5442 86.4362C49.1282 87.3002 44.5202 88.4522 39.7202 89.8922C35.4002 91.4282 31.1762 92.9642 27.0482 94.5002C23.0162 96.1322 19.5122 97.7642 16.5362 99.3962C13.4642 101.124 11.1602 102.564 9.62418 103.716C8.08818 104.964 6.93618 106.02 6.16818 106.884C5.78418 107.364 5.30418 107.604 4.72819 107.604C3.96018 107.604 3.19218 107.268 2.42418 106.596C0.888184 105.444 0.504185 104.34 1.27218 103.284C1.75218 102.708 2.23218 102.036 2.71218 101.268C3.28818 100.5 3.91218 99.6842 4.58418 98.8202C6.21618 96.5162 8.37618 93.1562 11.0642 88.7402L20.2802 73.4762L30.5042 56.1962L40.5842 38.7722L43.8962 33.0122C45.0482 31.0922 46.0562 29.3162 46.9202 27.6842C47.7842 26.0522 48.6002 24.5642 49.3682 23.2202C52.2482 18.3242 54.2642 14.5322 55.4162 11.8442C56.5682 9.54012 57.6722 8.19612 58.7282 7.81212V7.52412C59.1122 7.04412 59.5922 7.14012 60.1682 7.81212C61.2242 8.00412 61.6082 8.38812 61.3202 8.96412C61.1282 9.15612 60.9842 9.25212 60.8882 9.25212C60.9842 10.4042 60.3122 11.9402 58.8722 13.8602C56.6642 16.9322 54.2642 20.5322 51.6722 24.6602L42.3122 39.7802L36.8402 48.8522C34.7282 52.5002 33.0962 55.2362 31.9442 57.0602C29.2562 61.6682 25.8482 67.4282 21.7202 74.3402L12.6482 89.7482C9.57618 94.9322 7.65619 98.3882 6.88819 100.116L6.45618 100.836C7.03218 100.548 7.36818 100.356 7.46418 100.26C10.3442 98.8202 12.9362 97.6202 15.2402 96.6602C18.6002 95.2202 22.2002 93.7802 26.0402 92.3402C29.2082 91.0922 33.5762 89.6042 39.1442 87.8762C43.8482 86.3402 48.5042 85.1882 53.1122 84.4202C57.6242 83.5562 61.6562 82.9802 65.2082 82.6922C67.7042 82.5002 69.3362 82.4042 70.1042 82.4042C71.2562 82.4042 72.5042 82.5002 73.8482 82.6922Z" fill="#50B04E"/>
<path d="M87.3981 57.2039C88.5501 57.2999 89.1262 57.7799 89.1262 58.6439C89.1262 59.1239 89.0301 59.5079 88.8381 59.7959L85.9582 60.9479L81.4941 62.3879L75.7341 64.4039C74.4861 64.8839 72.6141 65.3159 70.1181 65.6999C69.7341 65.7959 69.2061 65.8439 68.5341 65.8439C67.5741 65.8439 66.7101 65.6039 65.9421 65.1239C64.9821 64.4519 64.3101 63.7319 63.9261 62.9639C63.2541 61.7159 63.1101 60.7559 63.4941 60.0839L63.6381 59.7959C63.4461 59.6039 63.3502 59.3639 63.3502 59.0759C63.3502 58.6919 63.6381 58.2119 64.2141 57.6359L64.5022 56.9159C64.9822 55.7639 65.5581 54.8039 66.2301 54.0359C66.6141 53.5559 66.9502 53.1239 67.2382 52.7399C67.5262 52.2599 67.8621 51.8279 68.2461 51.4439C68.8221 50.7719 69.6381 50.2919 70.6941 50.0039C70.8861 49.9079 71.1742 49.8599 71.5582 49.8599C72.0382 49.8599 72.5661 50.0039 73.1422 50.2919C74.0062 50.7719 74.5342 51.4439 74.7261 52.3079L74.8701 53.3159C74.8701 53.7959 74.7261 54.3239 74.4381 54.8999C74.0541 55.6679 73.5261 56.3879 72.8541 57.0599C72.2781 57.6359 71.6061 58.1639 70.8381 58.6439C70.0701 59.1239 69.2541 59.5559 68.3901 59.9399L66.5181 60.6599C66.5181 61.0439 66.6141 61.3799 66.8061 61.6679L67.5261 62.5319C67.6221 62.6279 67.9581 62.7239 68.5341 62.8199C69.1101 62.8199 69.6381 62.8199 70.1181 62.8199H71.1262C72.5662 62.8199 73.9101 62.6279 75.1581 62.2439C75.7341 62.0519 76.5021 61.8599 77.4621 61.6679C78.4221 61.3799 79.5261 60.9959 80.7741 60.5159C82.8861 59.6519 84.2781 59.0279 84.9501 58.6439L87.3981 57.2039ZM69.1101 56.0519C69.7821 55.8599 70.2621 55.4759 70.5501 54.8999C70.9341 54.3239 71.1741 53.8919 71.2701 53.6039C71.2701 53.6039 70.9822 53.7959 70.4061 54.1799C70.2141 54.2759 69.9261 54.4679 69.5421 54.7559C69.1581 55.0439 68.8221 55.3799 68.5341 55.7639L67.9581 56.6279L69.1101 56.0519Z" fill="#50B04E"/>
<path d="M178.569 16.596C179.721 16.596 180.537 17.172 181.017 18.324C180.249 19.092 179.721 19.14 179.433 18.468V18.612C179.433 19.092 179.001 19.188 178.137 18.9C174.873 18.516 173.385 18.324 173.673 18.324C171.849 18.036 169.593 17.892 166.905 17.892C165.081 17.796 162.009 17.748 157.689 17.748C156.249 17.652 154.905 17.652 153.657 17.748C152.409 17.748 151.353 17.748 150.489 17.748H145.881C139.545 17.94 134.889 18.132 131.913 18.324L128.889 18.468C127.737 20.004 126.873 21.204 126.297 22.068C124.377 24.66 123.225 26.34 122.841 27.108H122.697C121.737 27.492 121.017 27.492 120.537 27.108L114.201 36.036C112.665 38.244 110.025 42.18 106.281 47.844C104.361 50.916 102.489 54.084 100.665 57.348L99.0813 59.94C97.0653 63.78 95.1453 67.572 93.3213 71.316C91.8813 74.676 90.5853 77.844 89.4333 80.82C88.1853 83.988 87.5133 86.244 87.4173 87.588V88.74C87.4173 89.7 87.4653 90.276 87.5613 90.468C87.9453 90.852 88.3293 90.996 88.7133 90.9C89.1933 90.9 90.2973 90.66 92.0253 90.18C94.1373 89.412 96.1053 88.452 97.9293 87.3C100.425 85.764 102.873 84.084 105.273 82.26C107.097 81.012 109.833 78.852 113.481 75.78C116.457 73.38 119.097 71.172 121.401 69.156L128.025 63.252C129.273 62.196 130.281 61.284 131.049 60.516C131.817 59.748 132.489 59.124 133.065 58.644L133.209 58.5V58.356C133.401 58.356 133.545 58.308 133.641 58.212C134.121 57.732 134.649 57.588 135.225 57.78C135.513 57.876 135.657 58.02 135.657 58.212C135.753 58.404 135.657 58.74 135.369 59.22C134.889 59.796 134.409 60.228 133.929 60.516C133.545 60.9 133.353 61.092 133.353 61.092L131.913 62.244L131.625 62.532L129.177 64.692L122.409 70.452L114.633 77.076L106.425 83.7C103.257 86.196 100.761 88.02 98.9373 89.172C96.8253 90.708 94.8573 91.86 93.0333 92.628C91.5933 93.396 90.1053 93.78 88.5693 93.78H88.2813C86.8413 93.78 85.8813 93.156 85.4013 91.908C85.2093 91.428 85.1133 90.756 85.1133 89.892C85.1133 88.836 85.2093 88.02 85.4013 87.444C85.7853 85.908 86.6013 83.508 87.8493 80.244C90.1533 74.868 91.5453 71.7 92.0253 70.74C92.9853 68.724 94.9533 64.932 97.9293 59.364C99.7533 55.812 102.153 51.732 105.129 47.124L113.049 35.172L119.961 25.236C120.057 25.14 120.105 25.092 120.105 25.092V24.948L121.401 23.508C122.553 21.78 123.705 20.196 124.857 18.756L118.233 19.188L106.857 20.34C103.977 20.628 101.241 21.06 98.6493 21.636C98.7453 22.5 98.7453 23.124 98.6493 23.508C98.5533 23.604 98.4573 23.748 98.3613 23.94C98.2653 24.132 98.1213 24.276 97.9293 24.372H97.4973C96.9213 24.372 96.5373 24.132 96.3453 23.652C95.4813 23.652 94.7613 23.7 94.1853 23.796C93.0333 23.796 91.8813 23.94 90.7293 24.228C89.3853 24.42 88.4253 24.612 87.8493 24.804C87.0813 24.804 86.4573 24.612 85.9773 24.228C85.7853 24.228 85.6893 24.132 85.6893 23.94H85.5453C85.2573 23.652 85.1133 23.364 85.1133 23.076C85.1133 22.692 85.3533 22.356 85.8333 22.068C86.6013 21.588 88.0413 21.204 90.1533 20.916L95.0493 20.196L96.7773 19.764C97.2573 19.764 97.5453 19.812 97.6413 19.908C101.289 19.332 104.313 18.948 106.713 18.756L118.089 17.892C118.953 17.796 120.009 17.7 121.257 17.604C122.601 17.508 124.137 17.46 125.865 17.46C126.729 16.5 127.305 15.732 127.593 15.156L133.065 8.388L137.241 3.636C138.681 1.812 139.449 0.803999 139.545 0.611995C139.737 0.228 139.977 0.0360028 140.265 0.0360028C140.649 -0.0600017 141.081 0.0359971 141.561 0.323999C141.849 0.419998 141.993 0.611998 141.993 0.9C142.377 0.9 142.617 1.044 142.713 1.332C143.001 1.716 143.145 2.148 143.145 2.628C142.953 2.916 142.665 3.204 142.281 3.492C141.129 4.164 140.121 4.884 139.257 5.652C139.065 5.844 138.969 5.94 138.969 5.94C137.049 8.148 134.985 10.644 132.777 13.428C131.721 14.676 130.761 15.924 129.897 17.172H131.913C134.889 16.98 139.545 16.788 145.881 16.596C151.833 16.404 155.769 16.308 157.689 16.308L166.905 16.164C168.729 16.26 171.033 16.308 173.817 16.308C175.257 16.308 176.841 16.404 178.569 16.596Z" fill="#50B04E"/>
<path d="M153.667 44.9639C153.955 45.1559 154.147 45.4439 154.243 45.8279C154.339 46.1159 154.291 46.4039 154.099 46.6919C153.427 47.6519 152.851 48.2759 152.371 48.5639C152.179 48.9479 151.843 49.3319 151.363 49.7159C150.979 50.0999 150.643 50.4359 150.355 50.7239C149.491 50.5319 148.915 50.2919 148.627 50.0039C148.339 49.6199 148.387 49.0439 148.771 48.2759C149.155 48.1799 149.587 47.6519 150.067 46.6919H150.211C149.731 46.4039 149.491 45.9719 149.491 45.3959C149.395 45.2039 149.347 44.9159 149.347 44.5319C149.347 43.9559 149.587 43.5719 150.067 43.3799C150.547 42.8999 151.027 42.6599 151.507 42.6599C151.987 42.5639 152.419 42.5639 152.803 42.6599C154.051 43.4279 154.339 44.1959 153.667 44.9639Z" fill="#50B04E"/>
<path d="M185.352 57.3481C186.408 57.6361 186.936 57.9721 186.936 58.3561C186.936 58.7401 186.504 59.1721 185.64 59.6521C184.392 59.6521 182.76 60.0361 180.744 60.8041C178.824 61.5721 176.76 62.7721 174.552 64.4041C173.016 65.3641 171.912 66.1321 171.24 66.7081C171.432 67.2841 171.528 67.6681 171.528 67.8601C171.912 69.2041 172.008 70.6921 171.816 72.3241C171.528 73.8601 171.096 75.0121 170.52 75.7801C169.848 76.9321 169.128 77.8921 168.36 78.6601C167.208 79.6201 166.104 80.2921 165.048 80.6761C164.472 80.9641 163.944 81.1081 163.464 81.1081C162.792 81.1081 162.216 80.9161 161.736 80.5321C160.776 79.7641 160.248 78.7561 160.152 77.5081C160.152 75.9721 160.824 74.3881 162.168 72.7561C163.896 70.7401 165.528 69.0601 167.064 67.7161L168.648 66.4201L168.072 64.1161C167.784 63.5401 167.304 62.1961 166.632 60.0841C166.344 59.3161 166.2 58.5961 166.2 57.9241C166.2 57.6361 166.296 57.2041 166.488 56.6281C166.776 55.5721 167.16 54.6121 167.64 53.7481C168.408 52.5961 169.032 51.7801 169.512 51.3001C170.28 50.4361 171.048 49.8601 171.816 49.5721C172.488 49.1881 173.304 48.9961 174.264 48.9961C175.128 49.1881 175.752 49.7641 176.136 50.7241C176.232 51.0121 176.28 51.3961 176.28 51.8761C176.28 52.3561 176.136 52.8361 175.848 53.3161L174.264 55.3321L172.392 57.3481C171.432 58.3081 170.952 58.7881 170.952 58.7881L169.8 59.7961H169.512L170.376 63.3961L170.808 64.8361L173.544 62.8201C175.08 61.7641 177.24 60.5161 180.024 59.0761C182.04 58.2121 183.816 57.6361 185.352 57.3481ZM169.512 70.5961C169.512 70.1161 169.416 69.3961 169.224 68.4361C169.032 68.5321 168.744 68.7721 168.36 69.1561C166.632 70.6921 165.288 72.3241 164.328 74.0521C163.464 75.5881 163.032 76.6441 163.032 77.2201C163.128 77.3161 163.176 77.4601 163.176 77.6521C163.176 77.8441 163.224 77.9881 163.32 78.0841C163.416 78.3721 163.8 78.4201 164.472 78.2281C165.048 77.8441 165.672 77.3161 166.344 76.6441L168.216 74.3401C168.696 73.4761 169.08 72.6121 169.368 71.7481L169.512 70.5961Z" fill="#50B04E"/>
<path d="M286.988 57.348C288.044 57.636 288.572 58.02 288.572 58.5C288.572 58.884 288.284 59.364 287.708 59.94C286.844 60.036 285.644 60.42 284.108 61.092C282.86 61.572 281.084 62.484 278.78 63.828L273.452 67.14C272.972 68.868 272.492 70.404 272.012 71.748C271.532 72.996 271.148 74.052 270.86 74.916C269.996 77.604 268.844 80.292 267.404 82.98C266.444 84.804 264.908 87.54 262.796 91.188L257.612 99.54L252.428 107.748L247.532 114.948C246.092 117.156 244.652 119.028 243.212 120.564C241.388 122.484 240.14 123.732 239.468 124.308C238.508 124.98 237.308 125.412 235.868 125.604H235.436C234.284 125.604 233.42 125.076 232.844 124.02C232.364 123.348 232.028 122.052 231.836 120.132V118.98C231.836 117.636 232.028 116.244 232.412 114.804C233.084 112.5 233.852 110.34 234.716 108.324C236.156 105.348 237.548 102.708 238.892 100.404C240.908 96.756 242.732 93.876 244.364 91.764C247.052 88.116 249.116 85.524 250.556 83.988C253.916 80.436 256.124 78.228 257.18 77.364C258.428 76.308 260.732 74.484 264.092 71.892L267.98 69.012C269.516 68.052 270.62 67.284 271.292 66.708L271.868 66.276C272.54 63.78 272.924 61.572 273.02 59.652V57.924C273.02 56.772 272.924 55.62 272.732 54.468C272.444 53.124 271.916 52.212 271.148 51.732C270.476 51.348 269.612 51.156 268.556 51.156C267.692 51.156 266.492 51.54 264.956 52.308L263.084 53.316V54.036C263.084 54.228 263.036 54.468 262.94 54.756C262.844 55.044 262.796 55.284 262.796 55.476C262.796 56.148 262.604 56.484 262.22 56.484C261.932 56.484 261.788 56.676 261.788 57.06C261.308 57.636 260.972 57.924 260.78 57.924C260.3 57.924 259.916 57.492 259.628 56.628C259.724 56.436 259.676 56.196 259.484 55.908C258.332 56.772 257.18 57.78 256.028 58.932C253.532 61.428 252.284 62.676 252.284 62.676L249.692 65.556C249.116 65.94 248.732 66.132 248.54 66.132C248.156 66.132 247.676 65.94 247.1 65.556C246.044 64.692 245.804 63.828 246.38 62.964C246.86 62.196 247.676 61.044 248.828 59.508L251.996 55.476C253.244 53.844 254.396 52.692 255.452 52.02C256.892 50.964 257.948 50.388 258.62 50.292H259.34C259.82 50.292 260.444 50.388 261.212 50.58C261.692 50.772 262.028 51.012 262.22 51.3L263.948 50.436C265.868 49.38 267.404 48.804 268.556 48.708H269.276C270.428 48.708 271.532 49.044 272.588 49.716C273.74 50.484 274.556 51.78 275.036 53.604C275.324 54.756 275.468 55.908 275.468 57.06C275.468 57.54 275.372 58.452 275.18 59.796C274.7 62.196 274.364 63.828 274.172 64.692L277.772 62.388L283.244 59.22L286.988 57.348ZM258.62 53.892C258.524 53.988 258.332 54.084 258.044 54.18C257.852 54.18 257.516 54.324 257.036 54.612C255.884 55.284 254.78 56.148 253.724 57.204L251.42 59.796L254.588 57.204L258.62 53.892ZM269.276 74.34C269.756 73.092 270.38 71.22 271.148 68.724L268.7 70.596L265.1 73.188C264.236 73.86 261.932 75.684 258.188 78.66C256.172 80.292 254.012 82.404 251.708 84.996C249.692 87.204 247.676 89.748 245.66 92.628C243.164 96.276 241.388 99.108 240.332 101.124C238.508 104.58 237.26 107.22 236.588 109.044C235.532 111.828 234.908 113.892 234.716 115.236C234.428 116.868 234.38 118.404 234.572 119.844C234.668 120.612 234.86 121.428 235.148 122.292C235.34 122.772 235.676 123.012 236.156 123.012C236.732 123.012 237.452 122.772 238.316 122.292C239.756 121.524 240.956 120.516 241.916 119.268C243.356 117.636 244.796 115.86 246.236 113.94L249.548 109.476C249.644 109.284 250.172 108.468 251.132 107.028L256.46 98.676L261.5 90.324C263.132 87.252 264.092 85.428 264.38 84.852L265.82 82.116C267.26 79.332 268.412 76.74 269.276 74.34Z" fill="#50B04E"/>
<path d="M322.68 57.3483C323.736 57.6363 324.264 58.1163 324.264 58.7883C324.264 59.1723 324.12 59.6043 323.832 60.0843L321.096 61.0923C320.424 61.2843 319.752 61.4763 319.08 61.6683C318.504 61.7643 317.928 61.9083 317.352 62.1003C315.72 62.6763 314.28 63.0603 313.032 63.2523C310.248 63.8283 308.76 64.1163 308.568 64.1163C306.456 64.3083 304.968 64.3563 304.104 64.2603L301.656 68.0043C300.504 69.6363 299.64 70.6443 299.064 71.0283C298.104 71.6043 297.096 71.7483 296.04 71.4603C294.984 71.1723 294.408 70.4523 294.312 69.3003V68.4363C294.312 67.5723 294.456 66.6603 294.744 65.7003C295.32 63.9723 295.8 62.6763 296.184 61.8123L297.192 59.6523C296.808 58.6923 296.616 57.9243 296.616 57.3483C296.616 55.8123 296.904 54.5163 297.48 53.4603C298.152 52.3083 299.16 51.2043 300.504 50.1483L304.104 47.7003C305.448 46.9323 306.696 46.5003 307.848 46.4043H308.424C309.576 46.4043 310.344 46.6923 310.728 47.2683C311.4 48.1323 311.736 48.9003 311.736 49.5723C311.736 50.6283 311.544 51.5883 311.16 52.4523C310.68 53.7963 310.152 54.8523 309.576 55.6203C308.904 56.5803 308.088 57.9243 307.128 59.6523L305.976 61.6683C306.936 61.6683 307.704 61.6203 308.28 61.5243C308.856 61.4283 309.576 61.3803 310.44 61.3803C311.304 61.2843 312.024 61.1403 312.6 60.9483L316.632 59.7963L320.088 58.5003L322.68 57.3483ZM307.848 50.0043C307.848 50.3883 307.608 50.8203 307.128 51.3003L306.696 51.7323C306.504 51.9243 305.832 52.8363 304.68 54.4683C304.296 55.1403 303.96 55.7643 303.672 56.3403C303.384 56.8203 303.144 57.2523 302.952 57.6363C302.28 58.8843 301.896 59.6043 301.8 59.7963L301.368 60.8043L301.8 60.9483C302.184 61.1403 302.664 61.3323 303.24 61.5243L305.256 58.5003C306.024 57.4443 306.744 56.1483 307.416 54.6123L308.424 51.7323C308.712 50.7723 308.76 50.1963 308.568 50.0043L308.424 49.8603L307.992 49.7163L307.848 50.0043ZM301.944 52.1643C300.696 53.4123 299.976 54.2283 299.784 54.6123C299.592 54.9963 299.496 55.3323 299.496 55.6203L300.072 54.7563L302.088 52.0203L301.944 52.1643ZM299.64 66.1323C300.984 64.4043 301.608 63.6363 301.512 63.8283L300.504 63.3963C299.832 63.1083 299.256 62.7243 298.776 62.2443L298.632 62.8203C297.768 64.3563 297.288 65.5563 297.192 66.4203L296.904 68.2923C297.096 68.1003 297.24 68.0043 297.336 68.0043C297.912 68.0043 298.68 67.3803 299.64 66.1323Z" fill="#50B04E"/>
<path d="M372.911 16.8839C373.967 17.2679 374.255 17.7959 373.775 18.4679L373.487 18.6119C373.487 19.0919 373.151 19.6679 372.479 20.3399C371.423 21.1079 370.079 22.4999 368.447 24.5159C366.623 26.8199 365.135 28.9319 363.983 30.8519L359.519 38.0519L355.199 45.2519C353.663 47.6519 352.511 49.7159 351.743 51.4439C350.687 53.1719 349.967 54.6119 349.583 55.7639C348.911 56.2439 348.431 56.4839 348.143 56.4839C347.663 56.4839 347.423 55.9079 347.423 54.7559L350.015 50.4359L353.759 44.3879L355.487 41.5079C354.815 41.2199 354.527 40.4519 354.623 39.2039L356.927 36.1799C359.039 33.4919 360.431 31.7159 361.103 30.8519L365.279 25.5239C365.471 25.0439 365.951 24.3239 366.719 23.3639C367.775 21.8279 368.831 20.1479 369.887 18.3239C370.463 17.2679 371.087 16.7399 371.759 16.7399C371.951 16.4519 372.287 16.4519 372.767 16.7399L372.911 16.8839ZM340.799 75.3479C340.991 75.2519 341.279 75.2039 341.663 75.2039C342.815 75.2039 343.151 75.9239 342.671 77.3639L342.095 77.7959C341.135 77.6039 340.559 77.0279 340.367 76.0679C340.367 75.6839 340.511 75.4439 340.799 75.3479Z" fill="#50B04E"/>
</g>
</svg>
