<svg width="380" height="60" viewBox="0 0 380 60" fill="none" xmlns="http://www.w3.org/2000/svg">
<path d="M47.165 42.69C49.7649 41.282 51.8309 39.772 54.0339 39.538C57.3839 39.181 60.85 38.008 61.462 44.289C62.02 50.008 67.926 51.967 73.97 49.778C83.263 46.413 92.802 43.451 101.595 39.051C117.359 31.164 126.356 37.259 132.665 46.979C137.731 54.785 141.495 55.712 149.608 51.653C153.251 49.83 156.944 48.106 160.613 46.334C170.64 41.494 180.202 40.509 188.882 49.245C192.69 53.078 197.108 52.972 201.763 50.53C208.988 46.739 216.098 42.639 223.608 39.5C240.419 32.472 256.384 34.721 270.439 46.177C274.725 49.67 277.917 49.263 281.845 46.896C284.627 45.219 287.575 43.678 289.987 41.558C297.87 34.625 305.922 27.818 313.204 20.289C323.568 9.576 336.872 6.69 350.654 3.347C359.66 1.163 369.032 4.388 377.556 0.0590041C378.097 -0.215996 379.173 0.549999 380 0.831999C379.394 1.495 378.894 2.574 378.166 2.754C373.867 3.824 369.556 4.988 365.174 5.56C352.83 7.17 340.454 8.64799 329.454 15.049C324.349 18.019 319.106 20.992 314.677 24.823C305.079 33.123 295.769 41.78 286.728 50.678C281.369 55.953 274.015 57.299 268.252 51.534C260.315 43.596 250.122 39.623 238.635 41.38C229.64 42.756 221.093 45.873 213.158 50.437C210.108 52.19 207.193 54.223 204.012 55.692C196.971 58.943 190.699 58.929 184.552 52.779C178.155 46.379 171.415 46.793 161.107 52.573C159.551 53.446 158.36 55.049 156.75 55.726C144.462 60.891 141.45 62.84 132.185 53.055C129.597 50.322 126.966 47.611 124.159 45.107C119.489 40.942 113.99 39.929 108.193 42.176C99.5239 45.537 90.9699 49.191 82.3829 52.759C79.699 53.874 77.1749 55.557 74.394 56.215C66.263 58.14 62.533 56.247 57.087 48.084C55.611 45.871 54.688 45.303 51.7799 47.169C45.9399 50.919 39.5059 53.859 33.0739 56.564C27.3879 58.956 24.61 57.783 21.192 52.886C16.27 45.835 16.2689 45.833 10.1989 51.273C9.73195 51.691 9.31695 52.166 8.85895 52.595C6.47895 54.823 3.60295 59 0.69495 55.143C-1.72605 51.933 2.77195 49.267 5.14495 47.009C6.60995 45.614 8.57595 44.739 10.3219 43.638C15.8279 40.166 17.7359 39.912 21.8779 44.997C27.7149 52.165 32.6759 52.952 41.4729 46.497C43.1339 45.278 44.949 44.266 47.165 42.69Z" fill="black"/>
</svg>
