<svg width="626" height="720" viewBox="0 0 626 720" fill="none" xmlns="http://www.w3.org/2000/svg">
<g opacity="0.9">
<mask id="path-1-outside-1_413_463" maskUnits="userSpaceOnUse" x="291.462" y="274.227" width="194" height="258" fill="black">
<rect fill="white" x="291.462" y="274.227" width="194" height="258"/>
<path d="M399.068 296.13C399.468 306.23 409.868 321.73 426.968 321.03C439.268 320.53 445.968 310.83 445.568 301.53C444.468 273.43 397.968 268.63 399.068 296.13Z"/>
<path d="M425.068 322.53C409.568 322.03 398.068 308.03 397.568 296.13C396.368 266.43 445.968 271.43 447.168 301.43C447.568 312.53 439.268 323.03 425.068 322.53ZM419.168 279.43C388.768 278.53 399.168 320.63 426.868 319.53C452.268 318.43 449.168 280.33 419.168 279.43Z"/>
<path d="M357.368 296.73C354.568 319.73 398.768 332.63 399.668 303.03C400.468 276.03 360.268 272.63 357.368 296.73Z"/>
<path d="M355.668 296.53C358.868 270.03 402.268 274.23 401.368 303.13C400.368 335.13 352.568 322.03 355.668 296.53ZM378.268 282.43C358.668 281.83 354.668 299.73 363.468 309.93C372.668 320.63 397.268 324.33 397.968 303.03C398.168 293.13 391.568 282.83 378.268 282.43Z"/>
<path d="M319.868 424.93C331.968 437.43 351.168 430.43 354.268 417.83C357.968 403.13 346.768 394.63 331.868 390.93C312.268 386.03 305.368 409.83 319.868 424.93Z"/>
<path d="M334.468 433.13C318.968 432.63 307.568 415.63 311.168 401.33C316.168 381.33 341.668 389.23 351.068 399.23C364.168 412.93 352.068 433.63 334.468 433.13ZM327.267 391.73C313.067 391.33 308.268 410.63 320.968 423.83C332.568 435.83 350.067 428.43 352.767 417.43C357.067 399.83 336.567 392.03 327.267 391.73Z"/>
<path d="M374.268 507.33C375.768 540.03 424.168 529.33 421.368 502.73C418.068 473.03 372.868 476.03 374.268 507.33Z"/>
<path d="M372.568 507.43C371.068 474.13 419.568 470.63 422.968 502.63C426.068 531.43 374.168 542.33 372.568 507.43ZM375.868 507.23C376.768 527.43 397.468 530.23 410.768 520.93C428.468 508.53 418.168 482.13 396.268 483.83C386.068 484.63 375.268 492.23 375.868 507.23Z"/>
<path d="M440.968 413.23C429.168 407.93 415.268 418.63 414.968 431.03C414.668 442.23 425.068 452.23 436.968 452.63C457.368 453.23 462.968 423.13 440.968 413.23Z"/>
<path d="M436.968 454.33C423.968 453.93 412.868 443.03 413.268 430.93C413.568 419.73 423.968 409.83 435.068 410.13C445.868 410.43 457.268 421.93 456.968 434.63C456.568 444.63 449.068 454.63 436.968 454.33ZM416.668 431.03C416.368 441.23 425.868 450.53 437.068 450.83C455.168 451.43 460.968 424.03 440.268 414.73C429.568 409.93 416.968 419.93 416.668 431.03Z"/>
<path d="M461.568 364.53C449.468 359.13 435.268 370.03 434.868 382.73C434.468 394.23 445.268 404.53 457.468 404.93C478.368 405.53 484.168 374.63 461.568 364.53Z"/>
<path d="M457.368 406.63C444.068 406.23 432.668 395.03 433.068 382.63C433.468 371.13 444.068 360.93 455.468 361.33C466.568 361.63 478.268 373.53 477.868 386.43C477.568 396.63 469.868 407.03 457.368 406.63ZM436.568 382.73C436.268 393.23 446.068 402.73 457.468 403.13C476.068 403.73 481.968 375.63 460.768 366.13C449.868 361.13 436.968 371.43 436.568 382.73Z"/>
<path d="M437.168 376.13C393.368 368.53 396.668 418.73 432.368 419.83C446.268 420.23 453.768 407.83 454.068 398.53C454.368 388.53 447.868 377.93 437.168 376.13Z"/>
<path d="M432.368 421.53C397.168 420.43 390.768 372.53 430.468 373.73C466.668 374.83 460.968 422.43 432.368 421.53ZM432.468 418.13C444.968 418.53 453.268 406.83 452.368 396.43C451.668 388.43 446.568 379.53 436.868 377.83C395.068 370.53 399.468 417.13 432.468 418.13Z"/>
<path d="M335.968 393.03C335.068 424.03 381.568 432.03 382.568 399.33C383.768 358.23 336.568 371.23 335.968 393.03Z"/>
<path d="M361.368 422.03C345.668 421.53 333.668 408.73 334.168 392.93C334.468 381.83 347.568 371.93 358.468 370.73C391.068 367.23 394.368 423.03 361.368 422.03ZM337.768 393.03C336.868 421.83 379.868 429.33 380.768 399.23C381.968 360.83 338.368 373.33 337.768 393.03Z"/>
<path d="M322.968 355.53C311.768 352.43 300.368 363.73 300.068 373.23C299.268 400.73 342.368 401.53 343.068 378.03C343.568 362.63 331.168 352.43 322.968 355.53Z"/>
<path d="M321.468 396.43C303.668 395.93 298.368 380.53 298.568 373.23C298.868 362.43 311.168 351.03 322.968 353.93C344.068 347.03 359.368 397.53 321.468 396.43ZM301.668 373.23C301.468 379.53 306.068 392.73 321.568 393.23C354.868 394.23 340.268 350.53 323.068 357.03C311.868 354.03 301.868 365.33 301.668 373.23Z"/>
<path d="M323.468 355.83C322.668 382.13 365.768 394.63 366.868 358.43C367.568 334.83 324.468 322.53 323.468 355.83Z"/>
<path d="M321.868 355.73C322.968 320.43 369.168 332.83 368.368 358.43C367.268 396.13 321.068 384.43 321.868 355.73ZM324.968 355.83C324.268 380.23 364.268 392.23 365.268 358.33C365.968 336.73 325.968 324.73 324.968 355.83Z"/>
<path d="M415.368 332.73C404.968 331.13 395.267 344.53 394.967 354.43C394.067 385.13 442.368 388.43 443.168 360.43C443.668 345.83 429.568 334.83 415.368 332.73Z"/>
<path d="M393.268 354.43C393.568 343.73 403.368 330.53 413.868 330.83C427.668 331.23 445.568 343.83 445.068 360.53C444.068 390.83 392.168 387.63 393.268 354.43ZM413.768 334.33C405.568 334.03 397.068 345.63 396.868 354.53C396.568 363.93 403.268 377.33 419.168 377.83C454.668 378.83 444.068 335.33 413.768 334.33Z"/>
<path d="M452.968 330.03C427.668 331.33 426.768 369.83 458.068 370.73C489.068 371.73 476.968 328.83 452.968 330.03Z"/>
<path d="M458.068 372.33C424.768 371.33 425.668 329.93 452.868 328.53C478.868 327.23 491.368 373.33 458.068 372.33ZM455.568 331.53C443.568 331.13 436.068 339.53 435.768 348.93C435.068 371.83 474.468 377.53 475.168 355.13C475.468 345.13 466.068 331.93 455.568 331.53Z"/>
<path d="M437.868 315.93C437.368 331.23 446.968 337.63 462.768 338.13C474.868 338.53 481.068 333.03 481.368 321.13C482.168 293.03 438.968 279.83 437.868 315.93Z"/>
<path d="M462.668 339.63C444.668 339.03 435.868 331.03 436.268 315.83C437.468 277.63 483.768 291.13 482.868 321.13C482.468 333.83 475.668 340.03 462.668 339.63ZM439.368 315.93C438.968 329.33 446.568 336.03 462.768 336.53C474.068 336.83 479.468 331.93 479.768 321.03C480.568 295.03 440.368 282.03 439.368 315.93Z"/>
<path d="M314.368 301.33C311.368 325.83 358.368 339.53 359.268 308.03C360.168 279.23 317.468 275.63 314.368 301.33Z"/>
<path d="M312.468 301.13C315.868 272.93 362.068 277.33 361.068 308.13C360.068 342.13 309.168 328.23 312.468 301.13ZM336.568 286.13C315.668 285.53 311.468 304.43 320.768 315.33C330.568 326.73 356.768 330.63 357.368 307.93C357.768 297.43 350.668 286.53 336.568 286.13Z"/>
<path d="M318.768 316.93C305.368 315.23 295.668 327.93 295.368 336.53C295.168 343.73 301.068 357.73 317.168 358.23C325.768 358.53 338.968 354.33 339.368 340.73C339.768 326.23 331.768 318.63 318.768 316.93Z"/>
<path d="M317.068 360.03C298.868 359.43 293.268 343.63 293.468 336.53C293.768 327.63 303.168 314.53 316.768 315.03C348.568 315.93 350.368 361.13 317.068 360.03ZM316.668 318.63C304.868 318.23 297.268 330.13 297.068 336.63C296.868 343.33 302.568 356.03 317.168 356.43C324.068 356.63 337.068 353.63 337.468 340.73C337.568 338.23 337.268 335.33 336.568 332.23C334.868 323.83 324.868 318.83 316.668 318.63Z"/>
<path d="M383.468 483.93C375.168 503.53 357.868 506.13 347.068 491.83C331.268 470.93 360.368 443.23 379.068 468.03C382.868 472.93 385.668 478.83 383.468 483.93Z"/>
<path d="M362.568 502.23C344.568 501.63 331.968 474.73 350.168 461.03C368.768 447.03 389.768 472.33 384.668 484.43C380.668 494.23 372.868 502.53 362.568 502.23ZM362.668 459.63C349.068 459.23 337.368 476.53 348.268 491.03C358.368 504.43 374.368 502.13 382.268 483.43C385.368 476.13 374.868 460.03 362.668 459.63Z"/>
<path d="M413.068 486.83C432.368 500.43 442.868 484.73 443.768 476.13C444.768 466.53 438.567 448.43 420.267 450.63C410.067 451.83 400.668 457.53 400.368 468.33C400.068 478.83 407.368 482.83 413.068 486.83Z"/>
<path d="M426.668 493.63C420.268 493.43 415.368 490.23 410.568 486.93C405.168 483.23 398.568 478.63 398.868 468.23C399.268 455.93 410.068 450.23 420.168 449.03C438.068 446.83 446.668 463.83 445.368 476.23C444.468 484.53 437.268 494.03 426.668 493.63ZM413.968 485.53C420.968 490.43 427.468 491.83 432.768 489.43C449.868 481.73 442.868 449.43 420.568 452.13C411.768 453.23 402.368 458.03 402.068 468.33C401.668 477.43 407.268 480.83 413.968 485.53Z"/>
<path d="M389.467 459.43C359.867 466.03 370.168 501.13 394.368 501.93C405.168 502.23 414.967 493.73 415.267 483.43C415.667 469.93 404.767 456.03 389.467 459.43Z"/>
<path d="M394.368 503.43C368.468 502.63 357.768 464.93 389.168 457.93C405.268 454.33 417.268 468.93 416.768 483.43C416.468 494.63 406.168 503.83 394.368 503.43ZM394.668 460.43C386.068 460.13 373.268 466.33 372.868 478.23C372.468 489.63 382.568 500.03 394.368 500.33C404.368 500.63 413.368 492.73 413.668 483.33C414.068 472.63 406.468 460.83 394.668 460.43Z"/>
<path d="M339.968 441.73C339.468 457.73 350.568 463.63 366.468 464.13C396.368 465.03 394.868 438.63 388.768 427.03C376.268 403.33 340.668 417.53 339.968 441.73Z"/>
<path d="M366.468 465.73C347.268 465.13 337.867 457.03 338.267 441.63C339.067 415.33 376.967 401.23 390.267 426.23C396.567 438.23 398.568 466.73 366.468 465.73ZM341.568 441.73C341.168 455.13 349.268 461.83 366.468 462.43C394.968 463.33 392.767 438.23 387.267 427.83C375.467 405.43 342.268 419.53 341.568 441.73Z"/>
<path d="M438.468 308.93C423.968 299.23 406.768 310.23 406.368 323.13C405.868 338.23 418.668 344.23 433.968 344.73C454.068 345.33 455.768 320.63 438.468 308.93Z"/>
<path d="M412.168 415.13C369.368 406.23 368.868 459.83 403.968 460.93C429.668 461.63 428.468 418.53 412.168 415.13Z"/>
<path d="M403.868 462.63C369.368 461.53 366.268 411.43 404.868 412.53C415.868 412.83 423.868 416.53 425.268 431.73C427.268 453.13 416.568 463.03 403.868 462.63ZM404.768 415.93C370.768 414.93 373.868 458.23 403.968 459.13C418.168 459.53 423.168 446.33 421.868 432.03C420.668 419.33 414.868 416.23 404.768 415.93Z"/>
<path d="M433.868 346.33C404.668 345.43 399.068 324.83 409.468 311.83C424.068 293.53 452.468 309.03 451.868 330.33C451.568 340.13 444.268 346.63 433.868 346.33ZM426.968 306.73C405.068 306.03 395.368 342.03 433.968 343.23C458.168 343.93 450.368 307.53 426.968 306.73Z"/>
<path d="M393.968 373.83C379.968 372.53 368.868 382.23 368.468 395.33C367.568 424.63 416.768 430.63 417.668 400.43C418.068 388.63 409.068 375.23 393.968 373.83Z"/>
<path d="M395.368 421.93C357.668 420.73 358.568 371.23 392.368 372.23C406.268 372.63 417.368 382.93 419.068 397.53C420.468 409.23 411.468 422.43 395.368 421.93ZM392.268 375.33C362.668 374.43 361.768 417.83 395.468 418.83C409.568 419.23 417.268 407.63 416.068 397.93C414.468 384.93 404.668 375.63 392.268 375.33Z"/>
<path d="M378.668 334.83C368.668 333.03 359.968 342.03 359.668 351.73C359.368 361.83 368.668 378.03 385.668 378.53C397.968 378.93 405.368 369.73 405.668 360.43C405.968 349.03 395.368 335.43 386.168 335.13C383.668 335.03 381.068 335.33 378.668 334.83Z"/>
<path d="M385.668 380.03C368.068 379.53 357.768 363.13 358.168 351.63C358.468 341.43 367.068 332.73 376.568 333.03C379.568 333.13 378.368 333.63 383.668 333.53C397.568 333.33 407.568 349.03 407.268 360.43C406.868 370.23 399.268 380.53 385.668 380.03ZM376.468 336.13C367.768 335.83 361.468 344.13 361.268 351.73C360.968 361.73 370.368 376.43 385.768 376.93C397.368 377.33 403.868 368.63 404.168 360.33C404.468 349.93 394.568 336.83 386.168 336.63C375.068 336.33 378.568 336.23 376.468 336.13Z"/>
<path d="M365.568 321.03C365.268 330.43 375.168 341.53 386.868 341.93C398.568 342.33 419.068 331.23 411.668 312.83C401.668 287.73 366.368 292.93 365.568 321.03Z"/>
<path d="M386.767 343.73C373.667 343.33 363.468 330.93 363.768 321.03C364.168 307.53 372.368 297.43 384.568 295.23C401.468 292.23 415.368 306.73 414.968 321.83C414.568 334.13 399.167 344.13 386.767 343.73ZM389.568 298.43C378.368 298.13 367.768 306.33 367.268 321.13C366.968 329.43 375.968 339.83 386.868 340.23C397.368 340.53 411.168 331.63 411.468 321.83C411.768 310.73 402.868 298.83 389.568 298.43Z"/>
<path d="M333.968 314.73C328.068 323.43 333.068 340.43 353.568 341.13C365.568 341.53 373.668 336.83 374.068 322.73C374.668 303.43 349.468 291.83 333.968 314.73Z"/>
<path d="M353.468 342.93C332.168 342.23 325.468 324.13 332.468 313.83C348.968 289.33 376.468 301.73 375.768 322.93C375.368 336.63 367.868 343.33 353.468 342.93ZM354.068 303.83C344.568 303.53 328.368 316.23 335.168 329.53C336.968 333.03 341.768 339.03 353.668 339.33C366.068 339.73 371.968 334.43 372.368 322.73C372.668 310.73 363.368 304.13 354.068 303.83Z"/>
</mask>
<path d="M399.068 296.13C399.468 306.23 409.868 321.73 426.968 321.03C439.268 320.53 445.968 310.83 445.568 301.53C444.468 273.43 397.968 268.63 399.068 296.13Z" stroke="url(#paint0_radial_413_463)" stroke-width="4" mask="url(#path-1-outside-1_413_463)"/>
<path d="M425.068 322.53C409.568 322.03 398.068 308.03 397.568 296.13C396.368 266.43 445.968 271.43 447.168 301.43C447.568 312.53 439.268 323.03 425.068 322.53ZM419.168 279.43C388.768 278.53 399.168 320.63 426.868 319.53C452.268 318.43 449.168 280.33 419.168 279.43Z" stroke="url(#paint1_radial_413_463)" stroke-width="4" mask="url(#path-1-outside-1_413_463)"/>
<path d="M357.368 296.73C354.568 319.73 398.768 332.63 399.668 303.03C400.468 276.03 360.268 272.63 357.368 296.73Z" stroke="url(#paint2_radial_413_463)" stroke-width="4" mask="url(#path-1-outside-1_413_463)"/>
<path d="M355.668 296.53C358.868 270.03 402.268 274.23 401.368 303.13C400.368 335.13 352.568 322.03 355.668 296.53ZM378.268 282.43C358.668 281.83 354.668 299.73 363.468 309.93C372.668 320.63 397.268 324.33 397.968 303.03C398.168 293.13 391.568 282.83 378.268 282.43Z" stroke="url(#paint3_radial_413_463)" stroke-width="4" mask="url(#path-1-outside-1_413_463)"/>
<path d="M319.868 424.93C331.968 437.43 351.168 430.43 354.268 417.83C357.968 403.13 346.768 394.63 331.868 390.93C312.268 386.03 305.368 409.83 319.868 424.93Z" stroke="url(#paint4_radial_413_463)" stroke-width="4" mask="url(#path-1-outside-1_413_463)"/>
<path d="M334.468 433.13C318.968 432.63 307.568 415.63 311.168 401.33C316.168 381.33 341.668 389.23 351.068 399.23C364.168 412.93 352.068 433.63 334.468 433.13ZM327.267 391.73C313.067 391.33 308.268 410.63 320.968 423.83C332.568 435.83 350.067 428.43 352.767 417.43C357.067 399.83 336.567 392.03 327.267 391.73Z" stroke="url(#paint5_radial_413_463)" stroke-width="4" mask="url(#path-1-outside-1_413_463)"/>
<path d="M374.268 507.33C375.768 540.03 424.168 529.33 421.368 502.73C418.068 473.03 372.868 476.03 374.268 507.33Z" stroke="url(#paint6_radial_413_463)" stroke-width="4" mask="url(#path-1-outside-1_413_463)"/>
<path d="M372.568 507.43C371.068 474.13 419.568 470.63 422.968 502.63C426.068 531.43 374.168 542.33 372.568 507.43ZM375.868 507.23C376.768 527.43 397.468 530.23 410.768 520.93C428.468 508.53 418.168 482.13 396.268 483.83C386.068 484.63 375.268 492.23 375.868 507.23Z" stroke="url(#paint7_radial_413_463)" stroke-width="4" mask="url(#path-1-outside-1_413_463)"/>
<path d="M440.968 413.23C429.168 407.93 415.268 418.63 414.968 431.03C414.668 442.23 425.068 452.23 436.968 452.63C457.368 453.23 462.968 423.13 440.968 413.23Z" stroke="url(#paint8_radial_413_463)" stroke-width="4" mask="url(#path-1-outside-1_413_463)"/>
<path d="M436.968 454.33C423.968 453.93 412.868 443.03 413.268 430.93C413.568 419.73 423.968 409.83 435.068 410.13C445.868 410.43 457.268 421.93 456.968 434.63C456.568 444.63 449.068 454.63 436.968 454.33ZM416.668 431.03C416.368 441.23 425.868 450.53 437.068 450.83C455.168 451.43 460.968 424.03 440.268 414.73C429.568 409.93 416.968 419.93 416.668 431.03Z" stroke="url(#paint9_radial_413_463)" stroke-width="4" mask="url(#path-1-outside-1_413_463)"/>
<path d="M461.568 364.53C449.468 359.13 435.268 370.03 434.868 382.73C434.468 394.23 445.268 404.53 457.468 404.93C478.368 405.53 484.168 374.63 461.568 364.53Z" stroke="url(#paint10_radial_413_463)" stroke-width="4" mask="url(#path-1-outside-1_413_463)"/>
<path d="M457.368 406.63C444.068 406.23 432.668 395.03 433.068 382.63C433.468 371.13 444.068 360.93 455.468 361.33C466.568 361.63 478.268 373.53 477.868 386.43C477.568 396.63 469.868 407.03 457.368 406.63ZM436.568 382.73C436.268 393.23 446.068 402.73 457.468 403.13C476.068 403.73 481.968 375.63 460.768 366.13C449.868 361.13 436.968 371.43 436.568 382.73Z" stroke="url(#paint11_radial_413_463)" stroke-width="4" mask="url(#path-1-outside-1_413_463)"/>
<path d="M437.168 376.13C393.368 368.53 396.668 418.73 432.368 419.83C446.268 420.23 453.768 407.83 454.068 398.53C454.368 388.53 447.868 377.93 437.168 376.13Z" stroke="url(#paint12_radial_413_463)" stroke-width="4" mask="url(#path-1-outside-1_413_463)"/>
<path d="M432.368 421.53C397.168 420.43 390.768 372.53 430.468 373.73C466.668 374.83 460.968 422.43 432.368 421.53ZM432.468 418.13C444.968 418.53 453.268 406.83 452.368 396.43C451.668 388.43 446.568 379.53 436.868 377.83C395.068 370.53 399.468 417.13 432.468 418.13Z" stroke="url(#paint13_radial_413_463)" stroke-width="4" mask="url(#path-1-outside-1_413_463)"/>
<path d="M335.968 393.03C335.068 424.03 381.568 432.03 382.568 399.33C383.768 358.23 336.568 371.23 335.968 393.03Z" stroke="url(#paint14_radial_413_463)" stroke-width="4" mask="url(#path-1-outside-1_413_463)"/>
<path d="M361.368 422.03C345.668 421.53 333.668 408.73 334.168 392.93C334.468 381.83 347.568 371.93 358.468 370.73C391.068 367.23 394.368 423.03 361.368 422.03ZM337.768 393.03C336.868 421.83 379.868 429.33 380.768 399.23C381.968 360.83 338.368 373.33 337.768 393.03Z" stroke="url(#paint15_radial_413_463)" stroke-width="4" mask="url(#path-1-outside-1_413_463)"/>
<path d="M322.968 355.53C311.768 352.43 300.368 363.73 300.068 373.23C299.268 400.73 342.368 401.53 343.068 378.03C343.568 362.63 331.168 352.43 322.968 355.53Z" stroke="url(#paint16_radial_413_463)" stroke-width="4" mask="url(#path-1-outside-1_413_463)"/>
<path d="M321.468 396.43C303.668 395.93 298.368 380.53 298.568 373.23C298.868 362.43 311.168 351.03 322.968 353.93C344.068 347.03 359.368 397.53 321.468 396.43ZM301.668 373.23C301.468 379.53 306.068 392.73 321.568 393.23C354.868 394.23 340.268 350.53 323.068 357.03C311.868 354.03 301.868 365.33 301.668 373.23Z" stroke="url(#paint17_radial_413_463)" stroke-width="4" mask="url(#path-1-outside-1_413_463)"/>
<path d="M323.468 355.83C322.668 382.13 365.768 394.63 366.868 358.43C367.568 334.83 324.468 322.53 323.468 355.83Z" stroke="url(#paint18_radial_413_463)" stroke-width="4" mask="url(#path-1-outside-1_413_463)"/>
<path d="M321.868 355.73C322.968 320.43 369.168 332.83 368.368 358.43C367.268 396.13 321.068 384.43 321.868 355.73ZM324.968 355.83C324.268 380.23 364.268 392.23 365.268 358.33C365.968 336.73 325.968 324.73 324.968 355.83Z" stroke="url(#paint19_radial_413_463)" stroke-width="4" mask="url(#path-1-outside-1_413_463)"/>
<path d="M415.368 332.73C404.968 331.13 395.267 344.53 394.967 354.43C394.067 385.13 442.368 388.43 443.168 360.43C443.668 345.83 429.568 334.83 415.368 332.73Z" stroke="url(#paint20_radial_413_463)" stroke-width="4" mask="url(#path-1-outside-1_413_463)"/>
<path d="M393.268 354.43C393.568 343.73 403.368 330.53 413.868 330.83C427.668 331.23 445.568 343.83 445.068 360.53C444.068 390.83 392.168 387.63 393.268 354.43ZM413.768 334.33C405.568 334.03 397.068 345.63 396.868 354.53C396.568 363.93 403.268 377.33 419.168 377.83C454.668 378.83 444.068 335.33 413.768 334.33Z" stroke="url(#paint21_radial_413_463)" stroke-width="4" mask="url(#path-1-outside-1_413_463)"/>
<path d="M452.968 330.03C427.668 331.33 426.768 369.83 458.068 370.73C489.068 371.73 476.968 328.83 452.968 330.03Z" stroke="url(#paint22_radial_413_463)" stroke-width="4" mask="url(#path-1-outside-1_413_463)"/>
<path d="M458.068 372.33C424.768 371.33 425.668 329.93 452.868 328.53C478.868 327.23 491.368 373.33 458.068 372.33ZM455.568 331.53C443.568 331.13 436.068 339.53 435.768 348.93C435.068 371.83 474.468 377.53 475.168 355.13C475.468 345.13 466.068 331.93 455.568 331.53Z" stroke="url(#paint23_radial_413_463)" stroke-width="4" mask="url(#path-1-outside-1_413_463)"/>
<path d="M437.868 315.93C437.368 331.23 446.968 337.63 462.768 338.13C474.868 338.53 481.068 333.03 481.368 321.13C482.168 293.03 438.968 279.83 437.868 315.93Z" stroke="url(#paint24_radial_413_463)" stroke-width="4" mask="url(#path-1-outside-1_413_463)"/>
<path d="M462.668 339.63C444.668 339.03 435.868 331.03 436.268 315.83C437.468 277.63 483.768 291.13 482.868 321.13C482.468 333.83 475.668 340.03 462.668 339.63ZM439.368 315.93C438.968 329.33 446.568 336.03 462.768 336.53C474.068 336.83 479.468 331.93 479.768 321.03C480.568 295.03 440.368 282.03 439.368 315.93Z" stroke="url(#paint25_radial_413_463)" stroke-width="4" mask="url(#path-1-outside-1_413_463)"/>
<path d="M314.368 301.33C311.368 325.83 358.368 339.53 359.268 308.03C360.168 279.23 317.468 275.63 314.368 301.33Z" stroke="url(#paint26_radial_413_463)" stroke-width="4" mask="url(#path-1-outside-1_413_463)"/>
<path d="M312.468 301.13C315.868 272.93 362.068 277.33 361.068 308.13C360.068 342.13 309.168 328.23 312.468 301.13ZM336.568 286.13C315.668 285.53 311.468 304.43 320.768 315.33C330.568 326.73 356.768 330.63 357.368 307.93C357.768 297.43 350.668 286.53 336.568 286.13Z" stroke="url(#paint27_radial_413_463)" stroke-width="4" mask="url(#path-1-outside-1_413_463)"/>
<path d="M318.768 316.93C305.368 315.23 295.668 327.93 295.368 336.53C295.168 343.73 301.068 357.73 317.168 358.23C325.768 358.53 338.968 354.33 339.368 340.73C339.768 326.23 331.768 318.63 318.768 316.93Z" stroke="url(#paint28_radial_413_463)" stroke-width="4" mask="url(#path-1-outside-1_413_463)"/>
<path d="M317.068 360.03C298.868 359.43 293.268 343.63 293.468 336.53C293.768 327.63 303.168 314.53 316.768 315.03C348.568 315.93 350.368 361.13 317.068 360.03ZM316.668 318.63C304.868 318.23 297.268 330.13 297.068 336.63C296.868 343.33 302.568 356.03 317.168 356.43C324.068 356.63 337.068 353.63 337.468 340.73C337.568 338.23 337.268 335.33 336.568 332.23C334.868 323.83 324.868 318.83 316.668 318.63Z" stroke="url(#paint29_radial_413_463)" stroke-width="4" mask="url(#path-1-outside-1_413_463)"/>
<path d="M383.468 483.93C375.168 503.53 357.868 506.13 347.068 491.83C331.268 470.93 360.368 443.23 379.068 468.03C382.868 472.93 385.668 478.83 383.468 483.93Z" stroke="url(#paint30_radial_413_463)" stroke-width="4" mask="url(#path-1-outside-1_413_463)"/>
<path d="M362.568 502.23C344.568 501.63 331.968 474.73 350.168 461.03C368.768 447.03 389.768 472.33 384.668 484.43C380.668 494.23 372.868 502.53 362.568 502.23ZM362.668 459.63C349.068 459.23 337.368 476.53 348.268 491.03C358.368 504.43 374.368 502.13 382.268 483.43C385.368 476.13 374.868 460.03 362.668 459.63Z" stroke="url(#paint31_radial_413_463)" stroke-width="4" mask="url(#path-1-outside-1_413_463)"/>
<path d="M413.068 486.83C432.368 500.43 442.868 484.73 443.768 476.13C444.768 466.53 438.567 448.43 420.267 450.63C410.067 451.83 400.668 457.53 400.368 468.33C400.068 478.83 407.368 482.83 413.068 486.83Z" stroke="url(#paint32_radial_413_463)" stroke-width="4" mask="url(#path-1-outside-1_413_463)"/>
<path d="M426.668 493.63C420.268 493.43 415.368 490.23 410.568 486.93C405.168 483.23 398.568 478.63 398.868 468.23C399.268 455.93 410.068 450.23 420.168 449.03C438.068 446.83 446.668 463.83 445.368 476.23C444.468 484.53 437.268 494.03 426.668 493.63ZM413.968 485.53C420.968 490.43 427.468 491.83 432.768 489.43C449.868 481.73 442.868 449.43 420.568 452.13C411.768 453.23 402.368 458.03 402.068 468.33C401.668 477.43 407.268 480.83 413.968 485.53Z" stroke="url(#paint33_radial_413_463)" stroke-width="4" mask="url(#path-1-outside-1_413_463)"/>
<path d="M389.467 459.43C359.867 466.03 370.168 501.13 394.368 501.93C405.168 502.23 414.967 493.73 415.267 483.43C415.667 469.93 404.767 456.03 389.467 459.43Z" stroke="url(#paint34_radial_413_463)" stroke-width="4" mask="url(#path-1-outside-1_413_463)"/>
<path d="M394.368 503.43C368.468 502.63 357.768 464.93 389.168 457.93C405.268 454.33 417.268 468.93 416.768 483.43C416.468 494.63 406.168 503.83 394.368 503.43ZM394.668 460.43C386.068 460.13 373.268 466.33 372.868 478.23C372.468 489.63 382.568 500.03 394.368 500.33C404.368 500.63 413.368 492.73 413.668 483.33C414.068 472.63 406.468 460.83 394.668 460.43Z" stroke="url(#paint35_radial_413_463)" stroke-width="4" mask="url(#path-1-outside-1_413_463)"/>
<path d="M339.968 441.73C339.468 457.73 350.568 463.63 366.468 464.13C396.368 465.03 394.868 438.63 388.768 427.03C376.268 403.33 340.668 417.53 339.968 441.73Z" stroke="url(#paint36_radial_413_463)" stroke-width="4" mask="url(#path-1-outside-1_413_463)"/>
<path d="M366.468 465.73C347.268 465.13 337.867 457.03 338.267 441.63C339.067 415.33 376.967 401.23 390.267 426.23C396.567 438.23 398.568 466.73 366.468 465.73ZM341.568 441.73C341.168 455.13 349.268 461.83 366.468 462.43C394.968 463.33 392.767 438.23 387.267 427.83C375.467 405.43 342.268 419.53 341.568 441.73Z" stroke="url(#paint37_radial_413_463)" stroke-width="4" mask="url(#path-1-outside-1_413_463)"/>
<path d="M438.468 308.93C423.968 299.23 406.768 310.23 406.368 323.13C405.868 338.23 418.668 344.23 433.968 344.73C454.068 345.33 455.768 320.63 438.468 308.93Z" stroke="url(#paint38_radial_413_463)" stroke-width="4" mask="url(#path-1-outside-1_413_463)"/>
<path d="M412.168 415.13C369.368 406.23 368.868 459.83 403.968 460.93C429.668 461.63 428.468 418.53 412.168 415.13Z" stroke="url(#paint39_radial_413_463)" stroke-width="4" mask="url(#path-1-outside-1_413_463)"/>
<path d="M403.868 462.63C369.368 461.53 366.268 411.43 404.868 412.53C415.868 412.83 423.868 416.53 425.268 431.73C427.268 453.13 416.568 463.03 403.868 462.63ZM404.768 415.93C370.768 414.93 373.868 458.23 403.968 459.13C418.168 459.53 423.168 446.33 421.868 432.03C420.668 419.33 414.868 416.23 404.768 415.93Z" stroke="url(#paint40_radial_413_463)" stroke-width="4" mask="url(#path-1-outside-1_413_463)"/>
<path d="M433.868 346.33C404.668 345.43 399.068 324.83 409.468 311.83C424.068 293.53 452.468 309.03 451.868 330.33C451.568 340.13 444.268 346.63 433.868 346.33ZM426.968 306.73C405.068 306.03 395.368 342.03 433.968 343.23C458.168 343.93 450.368 307.53 426.968 306.73Z" stroke="url(#paint41_radial_413_463)" stroke-width="4" mask="url(#path-1-outside-1_413_463)"/>
<path d="M393.968 373.83C379.968 372.53 368.868 382.23 368.468 395.33C367.568 424.63 416.768 430.63 417.668 400.43C418.068 388.63 409.068 375.23 393.968 373.83Z" stroke="url(#paint42_radial_413_463)" stroke-width="4" mask="url(#path-1-outside-1_413_463)"/>
<path d="M395.368 421.93C357.668 420.73 358.568 371.23 392.368 372.23C406.268 372.63 417.368 382.93 419.068 397.53C420.468 409.23 411.468 422.43 395.368 421.93ZM392.268 375.33C362.668 374.43 361.768 417.83 395.468 418.83C409.568 419.23 417.268 407.63 416.068 397.93C414.468 384.93 404.668 375.63 392.268 375.33Z" stroke="url(#paint43_radial_413_463)" stroke-width="4" mask="url(#path-1-outside-1_413_463)"/>
<path d="M378.668 334.83C368.668 333.03 359.968 342.03 359.668 351.73C359.368 361.83 368.668 378.03 385.668 378.53C397.968 378.93 405.368 369.73 405.668 360.43C405.968 349.03 395.368 335.43 386.168 335.13C383.668 335.03 381.068 335.33 378.668 334.83Z" stroke="url(#paint44_radial_413_463)" stroke-width="4" mask="url(#path-1-outside-1_413_463)"/>
<path d="M385.668 380.03C368.068 379.53 357.768 363.13 358.168 351.63C358.468 341.43 367.068 332.73 376.568 333.03C379.568 333.13 378.368 333.63 383.668 333.53C397.568 333.33 407.568 349.03 407.268 360.43C406.868 370.23 399.268 380.53 385.668 380.03ZM376.468 336.13C367.768 335.83 361.468 344.13 361.268 351.73C360.968 361.73 370.368 376.43 385.768 376.93C397.368 377.33 403.868 368.63 404.168 360.33C404.468 349.93 394.568 336.83 386.168 336.63C375.068 336.33 378.568 336.23 376.468 336.13Z" stroke="url(#paint45_radial_413_463)" stroke-width="4" mask="url(#path-1-outside-1_413_463)"/>
<path d="M365.568 321.03C365.268 330.43 375.168 341.53 386.868 341.93C398.568 342.33 419.068 331.23 411.668 312.83C401.668 287.73 366.368 292.93 365.568 321.03Z" stroke="url(#paint46_radial_413_463)" stroke-width="4" mask="url(#path-1-outside-1_413_463)"/>
<path d="M386.767 343.73C373.667 343.33 363.468 330.93 363.768 321.03C364.168 307.53 372.368 297.43 384.568 295.23C401.468 292.23 415.368 306.73 414.968 321.83C414.568 334.13 399.167 344.13 386.767 343.73ZM389.568 298.43C378.368 298.13 367.768 306.33 367.268 321.13C366.968 329.43 375.968 339.83 386.868 340.23C397.368 340.53 411.168 331.63 411.468 321.83C411.768 310.73 402.868 298.83 389.568 298.43Z" stroke="url(#paint47_radial_413_463)" stroke-width="4" mask="url(#path-1-outside-1_413_463)"/>
<path d="M333.968 314.73C328.068 323.43 333.068 340.43 353.568 341.13C365.568 341.53 373.668 336.83 374.068 322.73C374.668 303.43 349.468 291.83 333.968 314.73Z" stroke="url(#paint48_radial_413_463)" stroke-width="4" mask="url(#path-1-outside-1_413_463)"/>
<path d="M353.468 342.93C332.168 342.23 325.468 324.13 332.468 313.83C348.968 289.33 376.468 301.73 375.768 322.93C375.368 336.63 367.868 343.33 353.468 342.93ZM354.068 303.83C344.568 303.53 328.368 316.23 335.168 329.53C336.968 333.03 341.768 339.03 353.668 339.33C366.068 339.73 371.968 334.43 372.368 322.73C372.668 310.73 363.368 304.13 354.068 303.83Z" stroke="url(#paint49_radial_413_463)" stroke-width="4" mask="url(#path-1-outside-1_413_463)"/>
</g>
<path opacity="0.7" d="M405.467 307.83C397.167 301.23 405.367 277.43 421.267 282.83C415.667 284.63 411.767 286.83 408.767 292.13C406.467 296.33 404.467 303.23 405.467 307.83Z" fill="white"/>
<path d="M364.168 306.73C357.068 299.63 367.168 278.03 381.768 284.83C376.268 286.03 372.368 287.53 368.968 292.33C366.168 295.93 363.668 302.23 364.168 306.73Z" fill="white"/>
<path opacity="0.5" d="M332.568 423.53C328.668 424.23 321.368 420.33 318.368 412.33C315.868 405.43 318.368 398.43 323.868 395.13C321.568 400.63 320.668 404.93 322.768 410.73C324.368 415.23 328.368 421.23 332.568 423.53Z" fill="white"/>
<path d="M450.967 398.53C441.267 398.63 433.567 377.13 447.767 371.83C444.867 376.33 443.267 380.13 444.267 385.63C444.967 389.93 447.567 395.93 450.967 398.53Z" fill="#50B04E"/>
<path opacity="0.5" d="M427.768 413.63C423.368 413.63 416.168 407.93 414.568 398.73C413.168 390.73 417.268 383.63 423.868 381.23C420.368 386.73 418.468 391.23 419.568 397.93C420.468 403.13 423.668 410.43 427.768 413.63Z" fill="white"/>
<path d="M353.168 410.03C349.268 409.33 343.868 402.93 344.068 394.43C344.268 387.03 349.168 381.53 355.368 380.43C351.268 384.73 348.768 388.43 348.668 394.53C348.468 399.33 350.068 406.43 353.168 410.03Z" fill="white"/>
<path d="M339.868 372.13C329.368 371.53 322.268 347.33 338.468 342.53C334.968 347.23 332.968 351.23 333.568 357.33C333.968 362.13 336.368 368.93 339.868 372.13Z" fill="white"/>
<path d="M392.068 522.13C388.368 522.63 381.568 518.83 379.068 511.33C376.768 504.63 379.368 498.23 384.668 495.43C382.368 500.43 381.368 504.43 383.268 510.03C384.568 514.23 388.168 519.93 392.068 522.13Z" fill="#50B04E"/>
<path opacity="0.7" d="M425.568 486.43C421.868 486.93 415.068 483.13 412.568 475.63C410.268 468.93 412.868 462.53 418.168 459.73C415.868 464.73 414.868 468.73 416.768 474.33C418.068 478.43 421.768 484.13 425.568 486.43Z" fill="white"/>
<path d="M438.068 446.23C428.368 449.23 414.268 430.33 426.668 420.93C425.168 426.23 424.768 430.33 427.468 435.53C429.468 439.43 433.968 444.53 438.068 446.23Z" fill="white"/>
<path opacity="0.6" d="M453.768 365.03C443.468 366.73 431.668 345.53 445.668 337.63C443.368 342.83 442.468 347.03 444.468 352.63C445.868 356.93 449.768 362.73 453.768 365.03Z" fill="white"/>
<path d="M397.268 455.03C392.968 455.03 385.768 449.43 384.068 440.33C382.568 432.23 386.668 425.23 393.168 422.83C389.668 428.23 387.868 432.63 389.068 439.43C389.968 444.83 393.268 451.83 397.268 455.03Z" fill="white"/>
<path d="M412.268 370.63C408.268 370.63 401.768 365.53 400.368 357.13C399.068 349.83 402.868 343.53 408.868 341.23C405.668 346.23 403.968 350.33 404.968 356.33C405.668 361.03 408.568 367.63 412.268 370.63Z" fill="white"/>
<path opacity="0.6" d="M421.968 338.13C412.468 337.13 407.368 315.43 421.768 311.73C418.468 315.83 416.568 319.33 416.868 324.73C417.068 329.03 418.968 335.13 421.968 338.13Z" fill="white"/>
<path opacity="0.7" d="M366.767 364.03C363.567 361.73 361.367 353.63 365.267 346.03C368.567 339.43 375.367 336.53 381.567 338.33C376.067 340.43 372.167 342.73 369.467 348.13C367.267 352.43 365.567 359.43 366.767 364.03Z" fill="white"/>
<path d="M374.968 326.53C372.168 323.43 371.568 314.73 376.968 307.73C381.668 301.63 389.268 299.93 395.268 303.03C389.168 304.03 384.768 305.63 380.768 310.73C377.668 314.63 374.568 321.53 374.968 326.53Z" fill="white"/>
<path d="M340.468 334.33C331.668 327.23 340.368 301.43 357.768 307.33C351.668 309.33 347.468 311.53 344.168 317.33C341.568 321.83 339.368 329.33 340.468 334.33Z" fill="#50B04E"/>
<path d="M302.667 347.13C294.667 339.13 306.067 314.43 322.767 322.13C316.467 323.43 312.067 325.23 308.167 330.63C305.167 334.83 302.167 342.03 302.667 347.13Z" fill="#50B04E"/>
<path d="M320.568 309.63C318.368 306.33 319.268 297.93 325.668 292.13C331.168 287.13 338.667 286.831 343.767 290.731C337.767 290.731 333.367 291.43 328.767 295.63C325.067 298.83 320.968 304.83 320.568 309.63Z" fill="#50B04E"/>
<path d="M314.767 389.43C310.867 388.73 305.468 382.33 305.668 373.83C305.868 366.43 310.767 360.93 316.967 359.83C312.867 364.13 310.367 367.83 310.267 373.93C310.167 378.73 311.667 385.83 314.767 389.43Z" fill="#50B04E"/>
<path opacity="0.5" d="M358.068 457.53C347.168 457.63 338.168 433.23 354.468 427.03C351.168 432.23 349.368 436.43 350.468 442.73C351.268 447.63 354.168 454.53 358.068 457.53Z" fill="white"/>
<path opacity="0.5" d="M358.467 494.63C348.267 494.63 340.367 472.43 354.967 467.03C351.967 471.73 350.367 475.53 351.467 481.23C352.167 485.63 354.967 491.83 358.467 494.63Z" fill="white"/>
<path d="M389.468 495.53C379.368 497.03 368.368 476.23 381.968 468.73C379.668 473.73 378.668 477.73 380.568 483.33C381.968 487.53 385.568 493.23 389.468 495.53Z" fill="white"/>
<path opacity="0.7" d="M384.867 412.53C374.367 412.63 365.667 389.03 381.367 383.13C378.167 388.13 376.467 392.23 377.467 398.23C378.267 403.03 381.167 409.63 384.867 412.53Z" fill="white"/>
<path d="M443.483 400.783C441.499 400.53 441.681 397.529 443.789 397.596C457.022 398.177 482.363 402.622 487.456 390.368C477.383 386.36 477.043 378.756 481.813 376.139C486.483 373.509 492.669 379.541 491.344 388.344C491.331 388.443 494.083 388.996 495.36 389.26C509.098 391.417 518.186 383.403 519.22 376.882C520.292 370.063 501.96 346.249 503.524 326.892C463.029 330.593 426.325 293.547 440.118 251.052C426.946 246.043 418.44 230.541 423.915 214.506C410.79 210.713 405.372 200.243 408.04 190.401C408.603 188.356 411.727 189.158 411.163 191.203C408.897 199.483 413.525 208.239 425.201 211.544C427.108 207.655 430.067 205.008 434.023 205.614C440.346 206.623 439.833 217.747 427.138 215.32C421.952 229.881 430.052 243.819 441.291 248.177C448.739 231.687 467.664 246.907 452.656 251.543C449.826 252.392 446.352 252.755 443.216 252.052C430.109 293.123 465.703 327.81 504.028 323.73C510.472 292.999 537.027 321.894 506.787 326.603C504.778 345.5 523.768 368.893 522.356 377.585C520.817 387.268 507.857 396.4 490.516 391.666C485.77 404.367 465.718 402.714 450.836 401.621C441.698 400.555 444.277 400.885 443.483 400.783ZM484.312 378.676C481.633 378.334 479.548 383.612 488.159 387.232C488.706 382.16 486.097 378.904 484.312 378.676ZM514.811 312.707C511.141 312.238 508.319 319.338 507.355 322.945C520.36 320.573 518.779 313.213 514.811 312.707ZM444.341 248.768C448.68 249.524 454.763 247.679 455.077 246.005C455.168 244.505 448.357 240.208 444.341 248.768ZM428.362 212.049C431.127 212.503 434.215 212.796 434.569 210.019C434.909 208.147 431.228 206.971 428.362 212.049Z" fill="url(#paint50_radial_413_463)"/>
<path d="M223.84 476.847C221.823 445.743 244.648 435.593 261.288 428.109C278.329 420.486 286.758 418.465 278.076 379.566C274.681 364.578 271.523 350.706 279.745 338.579C266.734 327.371 257.023 303.869 267.393 284.114C282.531 255.225 330.466 246.706 347.397 264.264C352.256 259.064 361.125 256.367 368.324 260.085C370.619 261.31 372.013 263.368 374 265C374 265 373.509 265 374.5 266.837C377.855 274 372.643 266.072 366.793 263.01C360.943 259.947 353.28 262.451 349.395 266.79C353.621 272.51 354.886 281.351 349.119 281.553C342.861 281.849 342.122 272.152 345.37 266.837C342.923 264.093 339.27 261.541 334.287 259.9C325.443 257.051 285.538 256.129 270.138 285.558C260.644 303.738 269.756 325.725 281.592 335.919C292.5 323.985 308.024 347.418 291.393 344.123C288.165 343.445 284.842 342.277 282.092 340.385C274.753 351.607 277.762 364.185 281.062 378.682C290.12 419.096 280.814 422.693 262.437 430.779C245.707 438.219 225.018 447.405 226.875 476.32C227.171 478.687 223.953 478.903 223.84 476.847ZM284.212 338.08C288.314 340.85 294.5 342.075 295.52 341.347C296.175 339.998 293.646 337.88 291.621 336.786C290.045 335.91 287.48 334.553 284.212 338.08ZM347.596 269.808C346.466 272.594 346.222 278.59 349.039 278.512C350.334 278.363 350.511 274.336 347.596 269.808Z" fill="url(#paint51_radial_413_463)"/>
<path d="M398.267 297.63C395.967 297.63 363.767 271.231 366.967 224.131C368.567 199.931 379.067 178.031 394.767 161.931C403.267 153.131 416.067 177.431 431.867 174.631C433.667 174.331 434.467 176.931 432.767 177.631C383.467 199.731 369.767 256.63 399.467 295.13C400.367 296.03 399.667 297.63 398.267 297.63ZM399.167 163.231C395.667 163.231 372.467 188.93 370.167 224.33C368.767 246.23 375.167 268.231 389.467 285.031C369.567 246.631 384.667 199.531 425.567 177.531C414.067 175.331 404.467 163.231 399.167 163.231Z" fill="url(#paint52_radial_413_463)"/>
<path d="M454.268 332.93C442.268 331.73 435.068 303.63 454.068 298.83C449.768 304.13 447.268 308.63 447.668 315.63C447.968 321.13 450.368 329.13 454.268 332.93Z" fill="#50B04E"/>
<defs>
<radialGradient id="paint0_radial_413_463" cx="0" cy="0" r="1" gradientUnits="userSpaceOnUse" gradientTransform="translate(388.171 402.751) rotate(85.6609) scale(182.773 136.815)">
<stop stop-color="white"/>
<stop offset="1" stop-color="white" stop-opacity="0"/>
</radialGradient>
<radialGradient id="paint1_radial_413_463" cx="0" cy="0" r="1" gradientUnits="userSpaceOnUse" gradientTransform="translate(388.171 402.751) rotate(85.6609) scale(182.773 136.815)">
<stop stop-color="white"/>
<stop offset="1" stop-color="white" stop-opacity="0"/>
</radialGradient>
<radialGradient id="paint2_radial_413_463" cx="0" cy="0" r="1" gradientUnits="userSpaceOnUse" gradientTransform="translate(388.171 402.751) rotate(85.6609) scale(182.773 136.815)">
<stop stop-color="white"/>
<stop offset="1" stop-color="white" stop-opacity="0"/>
</radialGradient>
<radialGradient id="paint3_radial_413_463" cx="0" cy="0" r="1" gradientUnits="userSpaceOnUse" gradientTransform="translate(388.171 402.751) rotate(85.6609) scale(182.773 136.815)">
<stop stop-color="white"/>
<stop offset="1" stop-color="white" stop-opacity="0"/>
</radialGradient>
<radialGradient id="paint4_radial_413_463" cx="0" cy="0" r="1" gradientUnits="userSpaceOnUse" gradientTransform="translate(388.171 402.751) rotate(85.6609) scale(182.773 136.815)">
<stop stop-color="white"/>
<stop offset="1" stop-color="white" stop-opacity="0"/>
</radialGradient>
<radialGradient id="paint5_radial_413_463" cx="0" cy="0" r="1" gradientUnits="userSpaceOnUse" gradientTransform="translate(388.171 402.751) rotate(85.6609) scale(182.773 136.815)">
<stop stop-color="white"/>
<stop offset="1" stop-color="white" stop-opacity="0"/>
</radialGradient>
<radialGradient id="paint6_radial_413_463" cx="0" cy="0" r="1" gradientUnits="userSpaceOnUse" gradientTransform="translate(388.171 402.751) rotate(85.6609) scale(182.773 136.815)">
<stop stop-color="white"/>
<stop offset="1" stop-color="white" stop-opacity="0"/>
</radialGradient>
<radialGradient id="paint7_radial_413_463" cx="0" cy="0" r="1" gradientUnits="userSpaceOnUse" gradientTransform="translate(388.171 402.751) rotate(85.6609) scale(182.773 136.815)">
<stop stop-color="white"/>
<stop offset="1" stop-color="white" stop-opacity="0"/>
</radialGradient>
<radialGradient id="paint8_radial_413_463" cx="0" cy="0" r="1" gradientUnits="userSpaceOnUse" gradientTransform="translate(388.171 402.751) rotate(85.6609) scale(182.773 136.815)">
<stop stop-color="white"/>
<stop offset="1" stop-color="white" stop-opacity="0"/>
</radialGradient>
<radialGradient id="paint9_radial_413_463" cx="0" cy="0" r="1" gradientUnits="userSpaceOnUse" gradientTransform="translate(388.171 402.751) rotate(85.6609) scale(182.773 136.815)">
<stop stop-color="white"/>
<stop offset="1" stop-color="white" stop-opacity="0"/>
</radialGradient>
<radialGradient id="paint10_radial_413_463" cx="0" cy="0" r="1" gradientUnits="userSpaceOnUse" gradientTransform="translate(388.171 402.751) rotate(85.6609) scale(182.773 136.815)">
<stop stop-color="white"/>
<stop offset="1" stop-color="white" stop-opacity="0"/>
</radialGradient>
<radialGradient id="paint11_radial_413_463" cx="0" cy="0" r="1" gradientUnits="userSpaceOnUse" gradientTransform="translate(388.171 402.751) rotate(85.6609) scale(182.773 136.815)">
<stop stop-color="white"/>
<stop offset="1" stop-color="white" stop-opacity="0"/>
</radialGradient>
<radialGradient id="paint12_radial_413_463" cx="0" cy="0" r="1" gradientUnits="userSpaceOnUse" gradientTransform="translate(388.171 402.751) rotate(85.6609) scale(182.773 136.815)">
<stop stop-color="white"/>
<stop offset="1" stop-color="white" stop-opacity="0"/>
</radialGradient>
<radialGradient id="paint13_radial_413_463" cx="0" cy="0" r="1" gradientUnits="userSpaceOnUse" gradientTransform="translate(388.171 402.751) rotate(85.6609) scale(182.773 136.815)">
<stop stop-color="white"/>
<stop offset="1" stop-color="white" stop-opacity="0"/>
</radialGradient>
<radialGradient id="paint14_radial_413_463" cx="0" cy="0" r="1" gradientUnits="userSpaceOnUse" gradientTransform="translate(388.171 402.751) rotate(85.6609) scale(182.773 136.815)">
<stop stop-color="white"/>
<stop offset="1" stop-color="white" stop-opacity="0"/>
</radialGradient>
<radialGradient id="paint15_radial_413_463" cx="0" cy="0" r="1" gradientUnits="userSpaceOnUse" gradientTransform="translate(388.171 402.751) rotate(85.6609) scale(182.773 136.815)">
<stop stop-color="white"/>
<stop offset="1" stop-color="white" stop-opacity="0"/>
</radialGradient>
<radialGradient id="paint16_radial_413_463" cx="0" cy="0" r="1" gradientUnits="userSpaceOnUse" gradientTransform="translate(388.171 402.751) rotate(85.6609) scale(182.773 136.815)">
<stop stop-color="white"/>
<stop offset="1" stop-color="white" stop-opacity="0"/>
</radialGradient>
<radialGradient id="paint17_radial_413_463" cx="0" cy="0" r="1" gradientUnits="userSpaceOnUse" gradientTransform="translate(388.171 402.751) rotate(85.6609) scale(182.773 136.815)">
<stop stop-color="white"/>
<stop offset="1" stop-color="white" stop-opacity="0"/>
</radialGradient>
<radialGradient id="paint18_radial_413_463" cx="0" cy="0" r="1" gradientUnits="userSpaceOnUse" gradientTransform="translate(388.171 402.751) rotate(85.6609) scale(182.773 136.815)">
<stop stop-color="white"/>
<stop offset="1" stop-color="white" stop-opacity="0"/>
</radialGradient>
<radialGradient id="paint19_radial_413_463" cx="0" cy="0" r="1" gradientUnits="userSpaceOnUse" gradientTransform="translate(388.171 402.751) rotate(85.6609) scale(182.773 136.815)">
<stop stop-color="white"/>
<stop offset="1" stop-color="white" stop-opacity="0"/>
</radialGradient>
<radialGradient id="paint20_radial_413_463" cx="0" cy="0" r="1" gradientUnits="userSpaceOnUse" gradientTransform="translate(388.171 402.751) rotate(85.6609) scale(182.773 136.815)">
<stop stop-color="white"/>
<stop offset="1" stop-color="white" stop-opacity="0"/>
</radialGradient>
<radialGradient id="paint21_radial_413_463" cx="0" cy="0" r="1" gradientUnits="userSpaceOnUse" gradientTransform="translate(388.171 402.751) rotate(85.6609) scale(182.773 136.815)">
<stop stop-color="white"/>
<stop offset="1" stop-color="white" stop-opacity="0"/>
</radialGradient>
<radialGradient id="paint22_radial_413_463" cx="0" cy="0" r="1" gradientUnits="userSpaceOnUse" gradientTransform="translate(388.171 402.751) rotate(85.6609) scale(182.773 136.815)">
<stop stop-color="white"/>
<stop offset="1" stop-color="white" stop-opacity="0"/>
</radialGradient>
<radialGradient id="paint23_radial_413_463" cx="0" cy="0" r="1" gradientUnits="userSpaceOnUse" gradientTransform="translate(388.171 402.751) rotate(85.6609) scale(182.773 136.815)">
<stop stop-color="white"/>
<stop offset="1" stop-color="white" stop-opacity="0"/>
</radialGradient>
<radialGradient id="paint24_radial_413_463" cx="0" cy="0" r="1" gradientUnits="userSpaceOnUse" gradientTransform="translate(388.171 402.751) rotate(85.6609) scale(182.773 136.815)">
<stop stop-color="white"/>
<stop offset="1" stop-color="white" stop-opacity="0"/>
</radialGradient>
<radialGradient id="paint25_radial_413_463" cx="0" cy="0" r="1" gradientUnits="userSpaceOnUse" gradientTransform="translate(388.171 402.751) rotate(85.6609) scale(182.773 136.815)">
<stop stop-color="white"/>
<stop offset="1" stop-color="white" stop-opacity="0"/>
</radialGradient>
<radialGradient id="paint26_radial_413_463" cx="0" cy="0" r="1" gradientUnits="userSpaceOnUse" gradientTransform="translate(388.171 402.751) rotate(85.6609) scale(182.773 136.815)">
<stop stop-color="white"/>
<stop offset="1" stop-color="white" stop-opacity="0"/>
</radialGradient>
<radialGradient id="paint27_radial_413_463" cx="0" cy="0" r="1" gradientUnits="userSpaceOnUse" gradientTransform="translate(388.171 402.751) rotate(85.6609) scale(182.773 136.815)">
<stop stop-color="white"/>
<stop offset="1" stop-color="white" stop-opacity="0"/>
</radialGradient>
<radialGradient id="paint28_radial_413_463" cx="0" cy="0" r="1" gradientUnits="userSpaceOnUse" gradientTransform="translate(388.171 402.751) rotate(85.6609) scale(182.773 136.815)">
<stop stop-color="white"/>
<stop offset="1" stop-color="white" stop-opacity="0"/>
</radialGradient>
<radialGradient id="paint29_radial_413_463" cx="0" cy="0" r="1" gradientUnits="userSpaceOnUse" gradientTransform="translate(388.171 402.751) rotate(85.6609) scale(182.773 136.815)">
<stop stop-color="white"/>
<stop offset="1" stop-color="white" stop-opacity="0"/>
</radialGradient>
<radialGradient id="paint30_radial_413_463" cx="0" cy="0" r="1" gradientUnits="userSpaceOnUse" gradientTransform="translate(388.171 402.751) rotate(85.6609) scale(182.773 136.815)">
<stop stop-color="white"/>
<stop offset="1" stop-color="white" stop-opacity="0"/>
</radialGradient>
<radialGradient id="paint31_radial_413_463" cx="0" cy="0" r="1" gradientUnits="userSpaceOnUse" gradientTransform="translate(388.171 402.751) rotate(85.6609) scale(182.773 136.815)">
<stop stop-color="white"/>
<stop offset="1" stop-color="white" stop-opacity="0"/>
</radialGradient>
<radialGradient id="paint32_radial_413_463" cx="0" cy="0" r="1" gradientUnits="userSpaceOnUse" gradientTransform="translate(388.171 402.751) rotate(85.6609) scale(182.773 136.815)">
<stop stop-color="white"/>
<stop offset="1" stop-color="white" stop-opacity="0"/>
</radialGradient>
<radialGradient id="paint33_radial_413_463" cx="0" cy="0" r="1" gradientUnits="userSpaceOnUse" gradientTransform="translate(388.171 402.751) rotate(85.6609) scale(182.773 136.815)">
<stop stop-color="white"/>
<stop offset="1" stop-color="white" stop-opacity="0"/>
</radialGradient>
<radialGradient id="paint34_radial_413_463" cx="0" cy="0" r="1" gradientUnits="userSpaceOnUse" gradientTransform="translate(388.171 402.751) rotate(85.6609) scale(182.773 136.815)">
<stop stop-color="white"/>
<stop offset="1" stop-color="white" stop-opacity="0"/>
</radialGradient>
<radialGradient id="paint35_radial_413_463" cx="0" cy="0" r="1" gradientUnits="userSpaceOnUse" gradientTransform="translate(388.171 402.751) rotate(85.6609) scale(182.773 136.815)">
<stop stop-color="white"/>
<stop offset="1" stop-color="white" stop-opacity="0"/>
</radialGradient>
<radialGradient id="paint36_radial_413_463" cx="0" cy="0" r="1" gradientUnits="userSpaceOnUse" gradientTransform="translate(388.171 402.751) rotate(85.6609) scale(182.773 136.815)">
<stop stop-color="white"/>
<stop offset="1" stop-color="white" stop-opacity="0"/>
</radialGradient>
<radialGradient id="paint37_radial_413_463" cx="0" cy="0" r="1" gradientUnits="userSpaceOnUse" gradientTransform="translate(388.171 402.751) rotate(85.6609) scale(182.773 136.815)">
<stop stop-color="white"/>
<stop offset="1" stop-color="white" stop-opacity="0"/>
</radialGradient>
<radialGradient id="paint38_radial_413_463" cx="0" cy="0" r="1" gradientUnits="userSpaceOnUse" gradientTransform="translate(388.171 402.751) rotate(85.6609) scale(182.773 136.815)">
<stop stop-color="white"/>
<stop offset="1" stop-color="white" stop-opacity="0"/>
</radialGradient>
<radialGradient id="paint39_radial_413_463" cx="0" cy="0" r="1" gradientUnits="userSpaceOnUse" gradientTransform="translate(388.171 402.751) rotate(85.6609) scale(182.773 136.815)">
<stop stop-color="white"/>
<stop offset="1" stop-color="white" stop-opacity="0"/>
</radialGradient>
<radialGradient id="paint40_radial_413_463" cx="0" cy="0" r="1" gradientUnits="userSpaceOnUse" gradientTransform="translate(388.171 402.751) rotate(85.6609) scale(182.773 136.815)">
<stop stop-color="white"/>
<stop offset="1" stop-color="white" stop-opacity="0"/>
</radialGradient>
<radialGradient id="paint41_radial_413_463" cx="0" cy="0" r="1" gradientUnits="userSpaceOnUse" gradientTransform="translate(388.171 402.751) rotate(85.6609) scale(182.773 136.815)">
<stop stop-color="white"/>
<stop offset="1" stop-color="white" stop-opacity="0"/>
</radialGradient>
<radialGradient id="paint42_radial_413_463" cx="0" cy="0" r="1" gradientUnits="userSpaceOnUse" gradientTransform="translate(388.171 402.751) rotate(85.6609) scale(182.773 136.815)">
<stop stop-color="white"/>
<stop offset="1" stop-color="white" stop-opacity="0"/>
</radialGradient>
<radialGradient id="paint43_radial_413_463" cx="0" cy="0" r="1" gradientUnits="userSpaceOnUse" gradientTransform="translate(388.171 402.751) rotate(85.6609) scale(182.773 136.815)">
<stop stop-color="white"/>
<stop offset="1" stop-color="white" stop-opacity="0"/>
</radialGradient>
<radialGradient id="paint44_radial_413_463" cx="0" cy="0" r="1" gradientUnits="userSpaceOnUse" gradientTransform="translate(388.171 402.751) rotate(85.6609) scale(182.773 136.815)">
<stop stop-color="white"/>
<stop offset="1" stop-color="white" stop-opacity="0"/>
</radialGradient>
<radialGradient id="paint45_radial_413_463" cx="0" cy="0" r="1" gradientUnits="userSpaceOnUse" gradientTransform="translate(388.171 402.751) rotate(85.6609) scale(182.773 136.815)">
<stop stop-color="white"/>
<stop offset="1" stop-color="white" stop-opacity="0"/>
</radialGradient>
<radialGradient id="paint46_radial_413_463" cx="0" cy="0" r="1" gradientUnits="userSpaceOnUse" gradientTransform="translate(388.171 402.751) rotate(85.6609) scale(182.773 136.815)">
<stop stop-color="white"/>
<stop offset="1" stop-color="white" stop-opacity="0"/>
</radialGradient>
<radialGradient id="paint47_radial_413_463" cx="0" cy="0" r="1" gradientUnits="userSpaceOnUse" gradientTransform="translate(388.171 402.751) rotate(85.6609) scale(182.773 136.815)">
<stop stop-color="white"/>
<stop offset="1" stop-color="white" stop-opacity="0"/>
</radialGradient>
<radialGradient id="paint48_radial_413_463" cx="0" cy="0" r="1" gradientUnits="userSpaceOnUse" gradientTransform="translate(388.171 402.751) rotate(85.6609) scale(182.773 136.815)">
<stop stop-color="white"/>
<stop offset="1" stop-color="white" stop-opacity="0"/>
</radialGradient>
<radialGradient id="paint49_radial_413_463" cx="0" cy="0" r="1" gradientUnits="userSpaceOnUse" gradientTransform="translate(388.171 402.751) rotate(85.6609) scale(182.773 136.815)">
<stop stop-color="white"/>
<stop offset="1" stop-color="white" stop-opacity="0"/>
</radialGradient>
<radialGradient id="paint50_radial_413_463" cx="0" cy="0" r="1" gradientUnits="userSpaceOnUse" gradientTransform="translate(373.073 319.127) rotate(96.862) scale(142.897 134.124)">
<stop stop-color="white"/>
<stop offset="1" stop-color="white" stop-opacity="0"/>
</radialGradient>
<radialGradient id="paint51_radial_413_463" cx="0" cy="0" r="1" gradientUnits="userSpaceOnUse" gradientTransform="translate(373.073 319.127) rotate(96.862) scale(142.897 134.124)">
<stop stop-color="white"/>
<stop offset="1" stop-color="white" stop-opacity="0"/>
</radialGradient>
<radialGradient id="paint52_radial_413_463" cx="0" cy="0" r="1" gradientUnits="userSpaceOnUse" gradientTransform="translate(373.073 319.127) rotate(96.862) scale(142.897 134.124)">
<stop stop-color="white"/>
<stop offset="1" stop-color="white" stop-opacity="0"/>
</radialGradient>
</defs>
</svg>
